<?xml version="1.0" encoding="utf-8"?>
<!-- Generator: Adobe Illustrator 23.0.6, SVG Export Plug-In . SVG Version: 6.00 Build 0)  -->
<svg version="1.0" id="Capa_1" xmlns="http://www.w3.org/2000/svg" xmlns:xlink="http://www.w3.org/1999/xlink" x="0px" y="0px"
	 viewBox="0 0 32 32" style="enable-background:new 0 0 32 32;" xml:space="preserve">
<style type="text/css">
	.st0{fill:#D30711;}
	.st1{fill:#1A1513;}
	.st2{fill:#1F140F;}
</style>
<g>
	<g>
		<path class="st0" d="M30.3,16c-0.5,0-1,0.4-1,0.9c-0.2,3.7-1.9,6.9-4.5,9.2c-0.5,0.3-1.1,0.4-1.7,0.4c-1.2,0-2.5-0.6-3.2-1.9
			c-0.8-1.3-0.5-3,0.5-4.1c1.5-1.8,1.8-4.4,0.6-6.5c-0.8-1.5-2.4-2.6-4.1-2.8c-3.6-0.6-6.7,2.2-6.7,5.7c0,1.4,0.5,2.7,1.4,3.7
			c1.2,1.4,1.2,3.4,0,4.8c-1.2,1.3-3,1.5-4.5,0.8c-1.2-1.1-2.2-2.4-3-3.8c-0.1-0.2-0.2-0.4-0.2-0.5l0,0.1c-0.7-1.5-1.2-3.2-1.3-4.9
			c0-0.5-0.5-0.9-1-0.9c-0.5,0-0.9,0.5-0.9,1c0.4,8,7.1,14.3,15.2,14.3S30.7,25.1,31.1,17C31.2,16.5,30.8,16,30.3,16L30.3,16z"/>
		<path class="st1" d="M27.9,9.7h-0.7c0.2,0.4,0.5,0.9,0.7,1.3V9.7z"/>
		<path class="st1" d="M4,9.7v1.5c0.2-0.5,0.5-1,0.7-1.5H4z"/>
	</g>
	<path class="st2" d="M30,14.5c-0.6,0-1.1-0.4-1.2-1C27.5,7.5,22.1,3.2,16,3.2S4.6,7.5,3.3,13.5c-0.1,0.7-0.8,1.1-1.5,1
		c-0.7-0.1-1.1-0.8-1-1.5C2.3,5.8,8.7,0.6,16,0.6S29.7,5.8,31.2,13c0.1,0.7-0.3,1.4-1,1.5C30.1,14.5,30,14.5,30,14.5z"/>
	<path class="st2" d="M23.1,22.9c-0.2,0-0.3,0-0.4-0.2c-0.3-0.2-0.3-0.6-0.1-0.9c1.4-1.6,2.1-3.6,2.1-5.7c0-4.8-3.9-8.7-8.7-8.7
		s-8.7,3.9-8.7,8.7c0,2.1,0.8,4.1,2.1,5.7c0.2,0.3,0.2,0.7-0.1,0.9c-0.3,0.2-0.7,0.2-0.9-0.1C6.9,20.9,6,18.5,6,16.1
		c0-5.5,4.5-10,10-10s10,4.5,10,10c0,2.4-0.9,4.7-2.4,6.5C23.5,22.8,23.3,22.9,23.1,22.9L23.1,22.9z"/>
</g>
</svg>
