<?xml version="1.0" encoding="utf-8"?>
<!-- Generator: Adobe Illustrator 23.0.6, SVG Export Plug-In . SVG Version: 6.00 Build 0)  -->
<svg version="1.0" id="Capa_1" xmlns="http://www.w3.org/2000/svg" xmlns:xlink="http://www.w3.org/1999/xlink" x="0px" y="0px"
	 viewBox="0 0 988.4 502.2" style="enable-background:new 0 0 988.4 502.2;" xml:space="preserve">
<style type="text/css">
	.st0{fill-rule:evenodd;clip-rule:evenodd;fill:#1F140F;}
	.st1{fill:#1F140F;}
	.st2{fill:#1A1513;}
	.st3{fill:#D30711;}
</style>
<g>
	<g>
		<path class="st0" d="M113.4,411.5c0-10.9-4.2-16.9-11.6-16.9c-7.4,0-11.8,6.1-11.8,16.9c0,10.9,4.3,17,11.7,17
			C109.1,428.6,113.3,422.8,113.4,411.5L113.4,411.5L113.4,411.5z M107.2,411.8c0,7.6-1.5,10.6-5.3,10.6c-3.7,0-5.7-3.4-5.7-11
			s2-10.9,5.5-10.9C105.3,400.6,107.2,403.8,107.2,411.8L107.2,411.8L107.2,411.8z M131.7,395.1h-4.9l-10.2,7.7l2.1,6.2l7.1-5.5V422
			H118v6h20.9l1.4-6h-8.5L131.7,395.1L131.7,395.1L131.7,395.1z M174.3,403.5c0-4.7-3.9-8.9-10.4-8.9c-6.6,0-11.6,3.8-11.6,9.9
			c0,2.7,1.1,5.4,3.7,7.3c-2.8,1.8-4.3,4.2-4.3,7.2c0,5.9,4.8,9.5,11.6,9.5c7.2,0,11.9-4.3,11.9-10.7c0-3.2-1.3-5.7-4.5-7.4
			C173.2,408.5,174.4,406.2,174.3,403.5L174.3,403.5L174.3,403.5z M161.6,414.1l3.2,0.7c3.2,0.6,4.3,1.7,4.3,3.7
			c0,2.4-1.8,4.2-5.3,4.2c-3.5,0-5.9-2-5.9-4.7c0-1.8,1-3.2,2.5-4.2C160.7,414,161.1,414.1,161.6,414.1L161.6,414.1z M165.8,408.6
			l-4-0.8c-2.4-0.5-3.4-1.7-3.4-3.6c0-2.4,2.2-3.9,5.3-3.9s4.9,2,4.9,4.1c0,1.6-0.6,3-2.2,4.3L165.8,408.6L165.8,408.6z
			 M201.3,411.5c0-10.9-4.2-16.9-11.6-16.9s-11.8,6.1-11.8,16.9c0,10.9,4.3,17,11.7,17S201.3,422.8,201.3,411.5L201.3,411.5
			L201.3,411.5z M195.1,411.8c0,7.6-1.5,10.6-5.3,10.6c-3.7,0-5.7-3.4-5.7-11c0-7.6,2-10.9,5.5-10.9S195.2,403.8,195.1,411.8
			L195.1,411.8L195.1,411.8z M227.4,411.5c0-10.9-4.2-16.9-11.6-16.9c-7.4,0-11.8,6.1-11.8,16.9c0,10.9,4.3,17,11.7,17
			S227.4,422.8,227.4,411.5L227.4,411.5L227.4,411.5z M221.2,411.8c0,7.6-1.5,10.6-5.3,10.6s-5.7-3.4-5.7-11c0-7.6,2-10.9,5.5-10.9
			C219.3,400.6,221.3,403.8,221.2,411.8L221.2,411.8L221.2,411.8z M253.6,411.5c0-10.9-4.2-16.9-11.6-16.9
			c-7.4,0-11.8,6.1-11.8,16.9c0,10.9,4.3,17,11.7,17S253.5,422.8,253.6,411.5L253.6,411.5L253.6,411.5z M247.3,411.8
			c0,7.6-1.5,10.6-5.3,10.6s-5.7-3.4-5.7-11c0-7.6,2-10.9,5.5-10.9C245.4,400.6,247.4,403.8,247.3,411.8L247.3,411.8L247.3,411.8z
			 M290.1,414.5h-4.6V395H279l-13.7,21.1v4.3h14.3v7.5h6v-7.5h3.2L290.1,414.5L290.1,414.5L290.1,414.5z M272.6,414.5l6.9-10.8v10.8
			H272.6z M314.7,422h-15.8c0-0.8,0.1-1.5,0.5-2c0.7-1.2,1.7-2,5.7-3.9c6-2.9,8.8-5.3,8.8-11.5c0-6.9-4.5-9.9-10.2-9.9
			c-3.6,0-7.4,1-10.2,2.4l0.9,5.7c2-1.1,5.5-2,8.2-2c2.9,0,5.2,1.4,5.2,4.3c0,2.9-2.1,4-5.7,6c-3.4,1.8-5.7,3.2-7.2,5.3
			c-1.4,2-2.1,4.9-2.1,9.4v2.5h20.5l1.4-6l0,0L314.7,422z M339.1,403c0-5.4-4-8.5-10-8.5c-3.8,0-7,1-9.7,2.2l0.8,5.7
			c2.6-1.2,5.5-1.9,7.6-1.9c2.9,0,5,1.2,5,3.6c0,2.8-2.1,4.2-6.1,4.2H325v5.4h2.8c4.1,0,5.7,1.2,5.7,3.9c0,2.9-2,4.9-6.3,4.9
			c-2.6,0-5.9-0.7-8.1-2l-0.6,6c2.6,1.3,6,2,9.5,2c7.1,0,11.8-3.9,11.8-10.5c0-3.9-1.8-6.6-5.3-7.5v-0.2c2.9-1.3,4.3-4.2,4.3-7.3
			l0,0L339.1,403z M376.2,403.4c0-4.7-3.9-8.9-10.4-8.9c-6.6,0-11.6,3.8-11.6,9.9c0,2.7,1.1,5.4,3.7,7.3c-2.8,1.8-4.3,4.2-4.3,7.2
			c0,5.9,4.8,9.5,11.6,9.5c7.2,0,11.9-4.3,11.9-10.7c0-3.2-1.3-5.7-4.5-7.4C375.1,408.4,376.3,406.2,376.2,403.4L376.2,403.4
			L376.2,403.4z M363.5,414.1l3.2,0.7c3.2,0.6,4.3,1.7,4.3,3.7c0,2.4-1.8,4.2-5.3,4.2c-3.5,0-5.9-2-5.9-4.7c0-1.8,1-3.2,2.5-4.2
			C362.6,413.9,363,414,363.5,414.1L363.5,414.1z M367.7,408.5l-4-0.8c-2.4-0.5-3.4-1.7-3.4-3.6c0-2.4,2.2-3.9,5.3-3.9
			c3.1,0,4.9,2,4.9,4.1c0,1.6-0.6,3-2.2,4.3L367.7,408.5L367.7,408.5z M400.9,403c0-5.4-4-8.5-10-8.5c-3.8,0-7,1-9.7,2.2l0.8,5.7
			c2.6-1.2,5.5-1.9,7.6-1.9c2.9,0,5,1.2,5,3.6c0,2.8-2.1,4.2-6.1,4.2h-1.8v5.4h2.8c4.1,0,5.7,1.2,5.7,3.9c0,2.9-2,4.9-6.3,4.9
			c-2.6,0-5.9-0.7-8.1-2l-0.6,6c2.6,1.3,6,2,9.5,2c7.1,0,11.8-3.9,11.8-10.5c0-3.9-1.8-6.6-5.3-7.5v-0.2c2.9-1.3,4.3-4.2,4.3-7.3
			l0,0L400.9,403z M427,403c0-5.4-4-8.5-10-8.5c-3.8,0-7,1-9.7,2.2l0.8,5.7c2.6-1.2,5.5-1.9,7.6-1.9c2.9,0,5,1.2,5,3.6
			c0,2.8-2.1,4.2-6.1,4.2h-1.8v5.4h2.8c4.1,0,5.7,1.2,5.7,3.9c0,2.9-2,4.9-6.3,4.9c-2.6,0-5.9-0.7-8.1-2l-0.6,6c2.6,1.3,6,2,9.5,2
			c7.1,0,11.8-3.9,11.8-10.5c0-3.9-1.8-6.6-5.3-7.5v-0.2c2.9-1.3,4.3-4.2,4.3-7.3L427,403z"/>
		<g>
			<path class="st1" d="M588.8,427.7c-1.8-0.4-3.5-0.8-4.9-1.5l0.7-5.7c1.2,0.6,2.6,1.1,4.3,1.4s3.2,0.5,4.8,0.5
				c2.4,0,4.1-0.4,5.3-1.3c1.2-0.8,1.8-2,1.8-3.4c0-1.3-0.5-2.2-1.5-2.9c-1-0.6-2.7-0.9-5-0.9H591v-5.2h2c2.2,0,3.9-0.4,5-1.1
				c1.1-0.7,1.8-1.7,1.8-3c0-1.1-0.5-2-1.5-2.6c-1.1-0.6-2.4-0.9-4.1-0.9c-1.3,0-2.6,0.1-4.1,0.5s-3,0.8-4.4,1.3l-0.9-5.5
				c3.5-1.5,7.1-2.2,10.8-2.2c3.4,0,6.1,0.7,8.1,2.2c2,1.5,3,3.4,3,6c0,1.5-0.4,2.9-1.2,4.2c-0.8,1.3-2,2.2-3.6,2.8v0.2
				c1.9,0.4,3.4,1.3,4.3,2.5c1,1.3,1.5,2.8,1.5,4.8c0,2.1-0.6,3.9-1.6,5.5c-1.1,1.5-2.7,2.7-4.6,3.5c-2,0.8-4.3,1.2-6.9,1.2
				C592.6,428.2,590.7,428.1,588.8,427.7L588.8,427.7z"/>
			<path class="st1" d="M615,423.9c-2.3-2.9-3.4-6.9-3.4-12.1s1.1-9.2,3.4-12.1c2.3-2.9,5.5-4.3,9.7-4.3c4.1,0,7.4,1.4,9.6,4.3
				c2.2,2.8,3.4,6.9,3.4,12.2c0,5.3-1.1,9.4-3.4,12.2c-2.3,2.8-5.5,4.2-9.6,4.2C620.4,428.2,617.2,426.7,615,423.9L615,423.9z
				 M629.3,419.9c0.9-1.6,1.4-4.3,1.4-7.9s-0.5-6.6-1.5-8.3c-1-1.8-2.5-2.6-4.6-2.6c-4.1,0-6.2,3.5-6.2,10.6s2.1,10.6,6.4,10.6
				C626.9,422.3,628.4,421.6,629.3,419.9z"/>
			<path class="st1" d="M655.9,395.9v31.9h-6.7v-25.1l-7.1,3.4l-1.8-5.4l10.3-4.7L655.9,395.9L655.9,395.9z"/>
			<path class="st1" d="M672.7,425.3c0-2.9,0.3-5.1,1-6.7c0.6-1.6,1.6-2.9,3-4c1.4-1.1,3.5-2.2,6.4-3.5c1.6-0.8,2.9-1.4,3.7-1.9
				c0.8-0.5,1.5-1.1,2-1.7c0.5-0.6,0.7-1.4,0.7-2.2c0-1.3-0.6-2.3-1.6-3.1c-1.1-0.7-2.5-1.1-4.2-1.1c-1.5,0-3.1,0.2-4.8,0.6
				c-1.8,0.4-3.2,0.8-4.3,1.4l-1.1-5.5c1.6-0.7,3.4-1.3,5.5-1.7c2-0.4,4-0.6,6-0.6c3.4,0,6.2,0.8,8.3,2.4c2.1,1.6,3.2,4,3.2,7.2
				c0,2-0.4,3.6-1.1,4.8c-0.7,1.3-1.8,2.4-3.1,3.3c-1.4,0.9-3.3,1.9-5.7,2.9c-1.8,0.8-3.3,1.5-4.3,2s-1.7,1.1-2.1,1.7
				c-0.4,0.6-0.6,1.2-0.6,2v0.2h17.6l-1.6,5.8h-23v-2.5L672.7,425.3z"/>
			<path class="st1" d="M706.8,427.1c-2-0.8-3.5-1.8-4.6-3.2c-1.1-1.4-1.7-3-1.7-4.8c0-2.8,1.6-5.2,4.8-7c-1.4-0.9-2.5-2-3.1-3.2
				c-0.7-1.3-1.1-2.5-1.1-3.9c0-2,0.6-3.6,1.7-5.1c1.1-1.5,2.6-2.5,4.6-3.3c2-0.8,4.2-1.1,6.7-1.1c2.4,0,4.4,0.4,6.2,1.2
				c1.8,0.8,3.1,1.8,4.1,3.2c1,1.3,1.4,2.7,1.4,4.3c0,2.5-1.3,4.8-4,6.6c3.4,1.5,5,4,5,7.2c0,2.1-0.6,3.9-1.7,5.5
				c-1.1,1.5-2.7,2.8-4.6,3.6s-4.3,1.3-7,1.3C711,428.2,708.7,427.9,706.8,427.1L706.8,427.1z M718.4,421.5c1.1-0.8,1.5-1.8,1.5-2.9
				c0-1-0.4-1.8-1.1-2.3c-0.8-0.6-2-1-3.7-1.3l-5-1c-1.8,1.1-2.8,2.5-2.8,4.1c0,1.3,0.6,2.4,1.8,3.2s2.8,1.3,4.8,1.3
				S717.3,422.2,718.4,421.5L718.4,421.5z M718.7,407.1c0.4-0.7,0.6-1.5,0.6-2.2c0-1.1-0.5-2-1.5-2.8c-1-0.8-2.3-1.2-4.1-1.2
				s-3.2,0.4-4.2,1.1c-1.1,0.7-1.6,1.6-1.6,2.7c0,1.9,1.3,3.1,3.9,3.5l5,0.9C717.7,408.5,718.4,407.8,718.7,407.1z"/>
			<path class="st1" d="M736.4,427.1c-2-0.8-3.5-1.8-4.6-3.2c-1.1-1.4-1.7-3-1.7-4.8c0-2.8,1.6-5.2,4.8-7c-1.4-0.9-2.5-2-3.1-3.2
				c-0.7-1.3-1.1-2.5-1.1-3.9c0-2,0.6-3.6,1.7-5.1c1.1-1.5,2.6-2.5,4.6-3.3c2-0.8,4.2-1.1,6.7-1.1c2.4,0,4.4,0.4,6.2,1.2
				c1.8,0.8,3.1,1.8,4.1,3.2c1,1.3,1.4,2.7,1.4,4.3c0,2.5-1.3,4.8-4,6.6c3.4,1.5,5,4,5,7.2c0,2.1-0.6,3.9-1.7,5.5
				c-1.1,1.5-2.7,2.8-4.6,3.6s-4.3,1.3-7,1.3C740.6,428.2,738.3,427.9,736.4,427.1L736.4,427.1z M748,421.5c1.1-0.8,1.5-1.8,1.5-2.9
				c0-1-0.4-1.8-1.1-2.3c-0.8-0.6-2-1-3.7-1.3l-5-1c-1.8,1.1-2.8,2.5-2.8,4.1c0,1.3,0.6,2.4,1.8,3.2s2.8,1.3,4.8,1.3
				S746.9,422.2,748,421.5L748,421.5z M748.3,407.1c0.4-0.7,0.6-1.5,0.6-2.2c0-1.1-0.5-2-1.5-2.8c-1-0.8-2.3-1.2-4.1-1.2
				c-1.8,0-3.2,0.4-4.2,1.1c-1.1,0.7-1.6,1.6-1.6,2.7c0,1.9,1.3,3.1,3.9,3.5l5,0.9C747.4,408.5,748,407.8,748.3,407.1z"/>
			<path class="st1" d="M784.7,395.9v31.9h-6.7v-25.1l-7.1,3.4l-1.8-5.4l10.3-4.7L784.7,395.9L784.7,395.9z"/>
			<path class="st1" d="M793.6,423.9c-2.3-2.9-3.4-6.9-3.4-12.1s1.1-9.2,3.4-12.1c2.3-2.9,5.5-4.3,9.7-4.3c4.1,0,7.4,1.4,9.6,4.3
				c2.2,2.8,3.4,6.9,3.4,12.2c0,5.3-1.1,9.4-3.4,12.2s-5.5,4.2-9.6,4.2C799,428.2,795.8,426.7,793.6,423.9L793.6,423.9z
				 M807.9,419.9c0.9-1.6,1.4-4.3,1.4-7.9s-0.5-6.6-1.5-8.3c-1-1.8-2.5-2.6-4.6-2.6c-4.1,0-6.2,3.5-6.2,10.6s2.1,10.6,6.4,10.6
				C805.5,422.3,807,421.6,807.9,419.9z"/>
			<path class="st1" d="M822.9,423.9c-2.3-2.9-3.4-6.9-3.4-12.1s1.1-9.2,3.4-12.1c2.3-2.9,5.5-4.3,9.7-4.3c4.1,0,7.4,1.4,9.6,4.3
				c2.2,2.8,3.4,6.9,3.4,12.2c0,5.3-1.1,9.4-3.4,12.2s-5.5,4.2-9.6,4.2C828.3,428.2,825.1,426.7,822.9,423.9L822.9,423.9z
				 M837.2,419.9c0.9-1.6,1.4-4.3,1.4-7.9s-0.5-6.6-1.5-8.3c-1-1.8-2.5-2.6-4.6-2.6c-4.1,0-6.2,3.5-6.2,10.6s2.1,10.6,6.4,10.6
				C834.9,422.3,836.3,421.6,837.2,419.9L837.2,419.9z"/>
			<path class="st1" d="M852.9,427.7c-1.8-0.4-3.5-0.8-4.9-1.5l0.7-5.7c1.2,0.6,2.6,1.1,4.3,1.4s3.2,0.5,4.8,0.5
				c2.4,0,4.1-0.4,5.3-1.3c1.2-0.8,1.8-2,1.8-3.4c0-1.3-0.5-2.2-1.5-2.9c-1-0.6-2.7-0.9-5-0.9h-3.2v-5.2h2c2.2,0,3.9-0.4,5-1.1
				s1.8-1.7,1.8-3c0-1.1-0.5-2-1.5-2.6c-1-0.6-2.4-0.9-4.1-0.9c-1.3,0-2.6,0.1-4.1,0.5s-3,0.8-4.4,1.3l-0.9-5.5
				c3.5-1.5,7.1-2.2,10.8-2.2c3.4,0,6.1,0.7,8.1,2.2c2,1.5,3,3.4,3,6c0,1.5-0.4,2.9-1.2,4.2c-0.8,1.3-2,2.2-3.6,2.8v0.2
				c1.9,0.4,3.4,1.3,4.3,2.5c1,1.3,1.5,2.8,1.5,4.8c0,2.1-0.6,3.9-1.6,5.5c-1.1,1.5-2.7,2.7-4.6,3.5s-4.3,1.2-6.9,1.2
				C856.7,428.2,854.8,428.1,852.9,427.7L852.9,427.7z"/>
		</g>
		<g>
			<path class="st1" d="M566.1,371.4c-0.6-0.6-0.8-1.5-0.8-2.7v-14.7h2.8v14c0,0.7,0.1,1.2,0.4,1.5c0.3,0.3,0.7,0.4,1.4,0.4h7.2
				l-0.8,2.5h-7.4C567.7,372.3,566.7,372,566.1,371.4L566.1,371.4z"/>
			<path class="st1" d="M578.8,350.7l5.7-3.4l1.3,2.2l-6,2.9L578.8,350.7L578.8,350.7z M580,353.9h2.8v18.3H580V353.9z"/>
			<path class="st1" d="M587.5,353.9h2.2l10.5,13.2v-13.2h2.7v18.3h-2l-10.7-13.6v13.6h-2.7V353.9z"/>
			<path class="st1" d="M607.3,353.9h12.3l-0.8,2.5h-8.6v5.8h7.5l-0.1,2.4h-7.4v5.3h9.5l-0.8,2.5h-11.4L607.3,353.9L607.3,353.9z"/>
			<path class="st1" d="M629.5,353.9h2.3l7.4,18.4h-3l-1.7-4.3h-7.8l-1.7,4.3h-3.1L629.5,353.9z M633.6,365.6l-2.9-7.4h-0.2
				l-2.9,7.4C627.6,365.6,633.6,365.6,633.6,365.6z"/>
			<path class="st1" d="M650.7,371.4c-1.4-0.8-2.5-1.8-3.4-3.3c-0.8-1.4-1.3-3.1-1.3-5s0.4-3.6,1.3-5c0.8-1.5,2-2.5,3.4-3.3
				c1.4-0.8,2.9-1.1,4.6-1.1s3.2,0.4,4.6,1.1c1.4,0.8,2.5,1.8,3.4,3.3c0.8,1.4,1.3,3.1,1.3,5s-0.4,3.6-1.3,5c-0.8,1.4-2,2.5-3.4,3.3
				c-1.4,0.8-2.9,1.1-4.7,1.1c-1.8,0-3.2-0.4-4.7-1.1H650.7z M658.6,369.3c1-0.6,1.8-1.4,2.3-2.5c0.6-1.1,0.8-2.3,0.8-3.8
				s-0.3-2.7-0.8-3.8c-0.6-1.1-1.3-1.9-2.3-2.5c-1-0.6-2-0.8-3.2-0.8c-1.1,0-2.2,0.3-3.2,0.8c-1,0.6-1.8,1.4-2.3,2.5
				c-0.6,1.1-0.8,2.3-0.8,3.8s0.3,2.7,0.8,3.8c0.6,1.1,1.3,1.9,2.3,2.5c1,0.6,2,0.8,3.2,0.8C656.6,370.1,657.6,369.8,658.6,369.3z"
				/>
			<path class="st1" d="M668.4,353.9h12l-0.8,2.5h-8.4v6h7.5l-0.1,2.4h-7.4v7.5h-2.8V353.9L668.4,353.9z"/>
			<path class="st1" d="M683,353.9h2.8v18.3H683V353.9z"/>
			<path class="st1" d="M693.9,371.3c-1.5-0.8-2.6-2-3.3-3.4c-0.8-1.4-1.1-3-1.1-4.8s0.4-3.5,1.2-4.9c0.8-1.4,1.9-2.5,3.4-3.4
				c1.5-0.8,3.2-1.2,5.3-1.2c1.1,0,2,0.1,2.9,0.3c1,0.2,1.8,0.5,2.4,0.8l-0.3,2.5c-1.6-0.8-3.2-1.1-5-1.1c-1.5,0-2.7,0.3-3.7,0.8
				c-1.1,0.6-1.9,1.4-2.5,2.5c-0.6,1.1-0.8,2.2-0.8,3.6c0,1.4,0.3,2.7,0.8,3.7c0.6,1.1,1.4,1.9,2.5,2.5c1.1,0.6,2.3,0.8,3.7,0.8
				c0.8,0,1.7-0.1,2.6-0.3c0.9-0.2,1.7-0.4,2.3-0.8l0.3,2.4c-0.7,0.4-1.5,0.6-2.5,0.8c-1,0.2-2,0.3-2.9,0.3c-2.1,0-3.9-0.4-5.3-1.3
				L693.9,371.3z"/>
			<path class="st1" d="M708.2,353.9h2.8v18.3h-2.8V353.9z"/>
			<path class="st1" d="M721.4,353.9h2.3l7.4,18.4h-3l-1.7-4.3h-7.8l-1.7,4.3h-3.1L721.4,353.9z M725.5,365.6l-2.9-7.4h-0.2
				l-2.9,7.4C719.6,365.6,725.5,365.6,725.5,365.6z"/>
			<path class="st1" d="M734.1,371.4c-0.6-0.6-0.8-1.5-0.8-2.7v-14.7h2.8v14c0,0.7,0.1,1.2,0.4,1.5c0.3,0.3,0.7,0.4,1.4,0.4h7.2
				l-0.8,2.5h-7.4C735.7,372.3,734.8,372,734.1,371.4L734.1,371.4z"/>
			<path class="st1" d="M750.4,353.9h3.2l4.3,13.8h0.2l4.6-13.8h2l4.7,13.8h0.2l4.3-13.8h3.2l-6.3,18.3h-2.4l-4.3-13h-0.2l-4.4,13
				h-2.4l-6.3-18.3H750.4z"/>
			<path class="st1" d="M779.4,353.9h2.8v7.6h9.4v-7.6h2.8v18.3h-2.8v-8.3h-9.4v8.3h-2.8V353.9z"/>
			<path class="st1" d="M804.8,353.9h2.3l7.4,18.4h-3l-1.7-4.3H802l-1.7,4.3h-3.1L804.8,353.9z M808.9,365.6l-2.9-7.4h-0.2l-2.9,7.4
				C802.9,365.6,808.9,365.6,808.9,365.6z"/>
			<path class="st1" d="M819,356.3h-6.2v-2.5h15.7l-0.8,2.5h-5.8v15.9h-2.8L819,356.3L819,356.3z"/>
			<path class="st1" d="M832,372.1c-1.1-0.2-2-0.6-2.9-0.9l0.4-2.6c0.8,0.4,1.8,0.8,2.7,1.1s1.9,0.4,2.8,0.4c1.3,0,2.4-0.3,3.1-0.8
				c0.7-0.6,1-1.3,1-2.2c0-0.6-0.1-1.1-0.5-1.5s-0.8-0.7-1.3-0.9c-0.6-0.2-1.3-0.5-2.4-0.8c-1.1-0.4-2-0.6-2.7-1
				c-0.8-0.4-1.3-0.8-1.9-1.5c-0.5-0.7-0.8-1.6-0.8-2.7c0-1.7,0.6-2.9,1.8-3.9c1.2-0.9,2.8-1.3,4.8-1.3c1.4,0,3,0.3,4.8,0.8
				l-0.2,2.5c-1.8-0.6-3.3-0.8-4.6-0.8c-2.5,0-3.7,0.8-3.7,2.5c0,0.6,0.1,1.1,0.4,1.4c0.3,0.4,0.7,0.6,1.2,0.8
				c0.5,0.2,1.3,0.5,2.2,0.8c1.3,0.4,2.3,0.8,3,1.1c0.8,0.4,1.3,0.8,1.8,1.5c0.5,0.7,0.8,1.5,0.8,2.7c0,1.8-0.6,3.2-1.9,4.2
				c-1.3,1-2.9,1.5-5,1.5C834,372.4,833,372.3,832,372.1L832,372.1z"/>
			<path class="st1" d="M850.7,353.9h2.3l7.4,18.4h-3l-1.7-4.3h-7.8l-1.7,4.3h-3.1L850.7,353.9z M854.8,365.6l-2.9-7.4h-0.2
				l-2.9,7.4H854.8z"/>
			<path class="st1" d="M863.2,353.9h6.4c4.6,0,6.8,1.9,6.8,5.7c0,1.8-0.6,3.4-1.6,4.6c-1,1.2-2.8,1.8-5,1.8H866v6.3h-2.8
				L863.2,353.9L863.2,353.9z M869.6,363.5c1.3,0,2.4-0.3,3-0.9s1-1.5,1-2.7c0-1.2-0.4-2.1-1-2.7c-0.6-0.6-1.6-0.8-2.9-0.8H866v7.1
				H869.6L869.6,363.5z"/>
			<path class="st1" d="M879.5,353.9h6.4c4.6,0,6.8,1.9,6.8,5.7c0,1.8-0.6,3.4-1.6,4.6c-1.1,1.2-2.8,1.8-5,1.8h-3.8v6.3h-2.8
				L879.5,353.9L879.5,353.9z M885.9,363.5c1.3,0,2.4-0.3,3-0.9s1-1.5,1-2.7c0-1.2-0.4-2.1-1-2.7c-0.6-0.6-1.6-0.8-2.9-0.8h-3.6v7.1
				H885.9L885.9,363.5z"/>
		</g>
		<g>
			<path class="st1" d="M104.5,367c-0.6-0.6-0.8-1.5-0.8-2.7v-14.7h2.8v14c0,0.7,0.1,1.2,0.4,1.5c0.3,0.3,0.7,0.4,1.4,0.4h7.2
				l-0.8,2.5h-7.4C106.1,367.9,105.1,367.6,104.5,367L104.5,367z"/>
			<path class="st1" d="M117.2,346.3l5.7-3.4l1.3,2.2l-6,2.9L117.2,346.3L117.2,346.3z M118.4,349.5h2.8v18.3h-2.8V349.5z"/>
			<path class="st1" d="M125.9,349.5h2.2l10.5,13.2v-13.2h2.7v18.3h-2l-10.7-13.6v13.6h-2.7C125.9,367.9,125.9,349.5,125.9,349.5z"
				/>
			<path class="st1" d="M145.7,349.5H158l-0.8,2.5h-8.6v5.8h7.5l-0.1,2.4h-7.4v5.3h9.5l-0.8,2.5h-11.4L145.7,349.5L145.7,349.5z"/>
			<path class="st1" d="M167.9,349.5h2.3l7.4,18.4h-3l-1.7-4.3h-7.8l-1.7,4.3h-3.1C160.3,367.9,167.9,349.5,167.9,349.5z M172,361.1
				l-2.9-7.4h-0.2l-2.9,7.4H172z"/>
			<path class="st1" d="M189.1,367c-1.4-0.8-2.5-1.8-3.4-3.3c-0.8-1.4-1.3-3.1-1.3-5s0.4-3.6,1.3-5c0.8-1.5,2-2.5,3.4-3.3
				c1.4-0.8,2.9-1.1,4.6-1.1c1.7,0,3.2,0.4,4.6,1.1c1.4,0.8,2.5,1.8,3.4,3.3c0.8,1.4,1.3,3.1,1.3,5s-0.4,3.6-1.3,5
				c-0.8,1.4-2,2.5-3.4,3.3c-1.4,0.8-2.9,1.1-4.7,1.1c-1.8,0-3.2-0.4-4.7-1.1H189.1z M196.9,364.9c1-0.6,1.8-1.4,2.3-2.5
				c0.6-1.1,0.8-2.3,0.8-3.8s-0.3-2.7-0.8-3.8c-0.6-1.1-1.3-1.9-2.3-2.5c-1-0.6-2-0.8-3.2-0.8c-1.1,0-2.2,0.3-3.2,0.8
				c-1,0.6-1.8,1.4-2.3,2.5c-0.6,1.1-0.8,2.3-0.8,3.8s0.3,2.7,0.8,3.8c0.6,1.1,1.3,1.9,2.3,2.5c1,0.6,2,0.8,3.2,0.8
				C194.9,365.8,195.9,365.5,196.9,364.9z"/>
			<path class="st1" d="M206.7,349.5h12l-0.8,2.5h-8.4v6h7.5l-0.1,2.4h-7.4v7.5h-2.8V349.5L206.7,349.5z"/>
			<path class="st1" d="M221.3,349.5h2.8v18.3h-2.8V349.5z"/>
			<path class="st1" d="M232.3,367c-1.5-0.8-2.6-2-3.3-3.4c-0.8-1.4-1.1-3-1.1-4.8s0.4-3.5,1.2-4.9c0.8-1.4,1.9-2.5,3.4-3.4
				c1.5-0.8,3.2-1.2,5.3-1.2c1.1,0,2,0.1,2.9,0.3c1,0.2,1.8,0.5,2.4,0.8l-0.3,2.5c-1.6-0.8-3.2-1.1-5-1.1c-1.5,0-2.7,0.3-3.7,0.8
				c-1.1,0.6-1.9,1.4-2.5,2.5c-0.6,1.1-0.8,2.2-0.8,3.6s0.3,2.7,0.8,3.7c0.6,1.1,1.4,1.9,2.5,2.5c1.1,0.6,2.3,0.8,3.7,0.8
				c0.8,0,1.7-0.1,2.6-0.3c0.9-0.2,1.7-0.4,2.3-0.8l0.3,2.4c-0.7,0.4-1.5,0.6-2.5,0.8c-1,0.2-2,0.3-2.9,0.3c-2.1,0-3.9-0.4-5.3-1.3
				L232.3,367z"/>
			<path class="st1" d="M246.6,349.5h2.8v18.3h-2.8V349.5z"/>
			<path class="st1" d="M259.7,349.5h2.3l7.4,18.4h-3l-1.7-4.3h-7.8l-1.7,4.3h-3.1C252.2,367.9,259.7,349.5,259.7,349.5z
				 M263.8,361.1l-2.9-7.4h-0.2l-2.9,7.4H263.8z"/>
			<path class="st1" d="M272.5,367c-0.6-0.6-0.8-1.5-0.8-2.7v-14.7h2.8v14c0,0.7,0.1,1.2,0.4,1.5c0.3,0.3,0.7,0.4,1.4,0.4h7.2
				l-0.8,2.5h-7.4C274.1,367.9,273.2,367.6,272.5,367L272.5,367z"/>
			<path class="st1" d="M294.5,367c-1.5-0.8-2.7-1.9-3.4-3.3c-0.8-1.4-1.2-3-1.2-4.8s0.4-3.6,1.3-5c0.8-1.5,2-2.5,3.6-3.4
				c1.5-0.8,3.4-1.2,5.5-1.2c2.1,0,3.9,0.4,5.5,1.1l-0.3,2.5c-1.6-0.8-3.4-1.1-5.2-1.1c-1.5,0-2.9,0.3-4.1,0.8
				c-1.1,0.6-2,1.4-2.6,2.5c-0.6,1.1-0.9,2.3-0.9,3.7c0,1.4,0.3,2.7,0.9,3.8c0.6,1.1,1.5,1.8,2.6,2.4c1.1,0.6,2.3,0.8,3.7,0.8
				c0.7,0,1.3,0,2-0.1c0.7-0.1,1.3-0.3,1.7-0.5v-5.9l2.8-0.8v8.1c-0.8,0.5-1.8,0.9-3,1.2c-1.2,0.3-2.5,0.4-3.7,0.4
				C297.7,368.2,295.9,367.8,294.5,367L294.5,367z"/>
			<path class="st1" d="M325.2,365.4l-0.7,2.5h-1.7c-0.6,0-1.2-0.1-1.5-0.3c-0.4-0.2-0.7-0.6-1.1-1l-3.4-5c0,0-0.3-0.4-0.4-0.4
				c-0.1,0-0.4-0.1-0.7-0.1h-2.3v6.9h-2.8v-18.3h6.7c2.1,0,3.8,0.4,4.9,1.3c1.2,0.9,1.8,2.2,1.8,4.1c0,1.5-0.4,2.7-1.1,3.6
				c-0.7,1-1.8,1.7-3.3,2l2.7,4c0,0,0.4,0.6,0.6,0.6c0.2,0.1,0.5,0.1,0.9,0.1L325.2,365.4L325.2,365.4z M317.2,358.6
				c1.3,0,2.2-0.3,2.9-0.9s1-1.5,1-2.5c0-2.1-1.3-3.2-3.9-3.2h-3.8v6.7L317.2,358.6L317.2,358.6z"/>
			<path class="st1" d="M334.7,349.5h2.3l7.4,18.4h-3l-1.7-4.3h-7.8l-1.7,4.3h-3.1C327.1,367.9,334.7,349.5,334.7,349.5z
				 M338.8,361.1l-2.9-7.4h-0.2l-2.9,7.4H338.8z"/>
			<path class="st1" d="M349,352h-6.2v-2.5h15.7l-0.8,2.5h-5.8v15.9H349L349,352L349,352z"/>
			<path class="st1" d="M362.6,366.4c-1.3-1.2-2-2.9-2-5.3v-11.6h2.8v11.4c0,1.5,0.4,2.7,1.2,3.5c0.8,0.8,2,1.2,3.5,1.2
				s2.7-0.4,3.4-1.2c0.8-0.8,1.2-2,1.2-3.5v-11.4h2.8v11.6c0,2.4-0.6,4.1-1.9,5.3c-1.3,1.2-3.1,1.8-5.5,1.8
				C365.7,368.1,363.9,367.6,362.6,366.4z"/>
			<path class="st1" d="M380,349.5h2.8v18.3H380V349.5z"/>
			<path class="st1" d="M391.8,352h-6.2v-2.5h15.7l-0.8,2.5h-5.8v15.9h-2.8L391.8,352L391.8,352z"/>
			<path class="st1" d="M406.9,349.5h2.3l7.4,18.4h-3l-1.7-4.3h-7.8l-1.7,4.3h-3.1L406.9,349.5z M411,361.1l-2.9-7.4h-0.2l-2.9,7.4
				C405,361.1,411,361.1,411,361.1z"/>
		</g>
		<path class="st1" d="M494.1,328.9c1.5,21.3,1.5,42.5,1.8,63.8c-0.2,21.3-0.3,42.5-1.8,63.8c-1.5-21.3-1.5-42.5-1.8-63.8
			C492.5,371.4,492.6,350.2,494.1,328.9z"/>
	</g>
	<polygon class="st1" points="0,500 123.6,498.9 247.1,498.3 494.2,497.7 741.3,498.3 864.9,498.8 988.4,500 864.9,501 741.3,501.6 
		494.2,502.2 247.1,501.6 123.6,501 	"/>
	<g>
		<path class="st1" d="M35.8,486.1c0,0-0.4-0.1-0.4-0.4s0.1-0.4,0.4-0.4c0.2,0,0.4,0.1,0.4,0.4S36,486.1,35.8,486.1z"/>
		<circle class="st1" cx="53.1" cy="485.8" r="0.6"/>
		<path class="st1" d="M70.4,486.7c-0.5,0-0.9-0.4-0.9-0.9s0.4-0.9,0.9-0.9c0.5,0,0.9,0.4,0.9,0.9S70.8,486.7,70.4,486.7z"/>
		<circle class="st1" cx="87.6" cy="485.8" r="1.2"/>
		<path class="st1" d="M105,487.2c-0.8,0-1.4-0.6-1.4-1.4c0-0.8,0.6-1.4,1.4-1.4c0.8,0,1.4,0.6,1.4,1.4
			C106.4,486.5,105.8,487.2,105,487.2z"/>
		<path class="st1" d="M122.3,487.4c-0.9,0-1.7-0.8-1.7-1.7c0-0.9,0.8-1.7,1.7-1.7s1.7,0.8,1.7,1.7
			C124,486.7,123.2,487.4,122.3,487.4z"/>
		<circle class="st1" cx="139.6" cy="485.8" r="2"/>
		<path class="st1" d="M156.9,487.9c-1.2,0-2.1-0.9-2.1-2.1s0.9-2.1,2.1-2.1c1.2,0,2.1,0.9,2.1,2.1S158.1,487.9,156.9,487.9z"/>
		<circle class="st1" cx="174.2" cy="485.8" r="2.2"/>
		<circle class="st1" cx="191.5" cy="485.8" r="2.4"/>
		<path class="st1" d="M208.7,488.3c-1.4,0-2.6-1.1-2.6-2.6s1.1-2.6,2.6-2.6s2.6,1.1,2.6,2.6S210.2,488.3,208.7,488.3z"/>
		<path class="st1" d="M226.1,488.5c-1.5,0-2.7-1.2-2.7-2.7s1.2-2.7,2.7-2.7c1.5,0,2.7,1.2,2.7,2.7S227.7,488.5,226.1,488.5z"/>
		<path class="st1" d="M243.4,488.6c-1.6,0-2.9-1.3-2.9-2.9s1.3-2.9,2.9-2.9c1.6,0,2.9,1.3,2.9,2.9S245,488.6,243.4,488.6z"/>
		<circle class="st1" cx="260.7" cy="485.8" r="3"/>
		<circle class="st1" cx="278" cy="485.8" r="3.2"/>
		<path class="st1" d="M295.3,489c-1.8,0-3.3-1.5-3.3-3.3s1.5-3.3,3.3-3.3s3.3,1.5,3.3,3.3S297.1,489,295.3,489z"/>
		<circle class="st1" cx="312.6" cy="485.8" r="3.4"/>
		<circle class="st1" cx="329.9" cy="485.8" r="3.4"/>
		<path class="st1" d="M347.1,489.2c-1.9,0-3.4-1.5-3.4-3.4c0-1.9,1.5-3.4,3.4-3.4c1.9,0,3.4,1.5,3.4,3.4
			C350.6,487.6,349,489.2,347.1,489.2z"/>
		<path class="st1" d="M364.5,489.3c-2,0-3.5-1.5-3.5-3.5s1.5-3.5,3.5-3.5s3.5,1.5,3.5,3.5S366.5,489.3,364.5,489.3z"/>
		<path class="st1" d="M381.8,489.3c-2,0-3.6-1.6-3.6-3.6s1.6-3.6,3.6-3.6c2,0,3.6,1.6,3.6,3.6S383.8,489.3,381.8,489.3z"/>
		<circle class="st1" cx="399.1" cy="485.8" r="3.6"/>
		<circle class="st1" cx="416.4" cy="485.8" r="3.6"/>
		<path class="st1" d="M433.7,489.5c-2,0-3.7-1.7-3.7-3.7s1.7-3.7,3.7-3.7s3.7,1.7,3.7,3.7S435.7,489.5,433.7,489.5z"/>
		<circle class="st1" cx="451" cy="485.8" r="3.8"/>
		<path class="st1" d="M468.3,489.5c-2.1,0-3.9-1.7-3.9-3.9s1.7-3.9,3.9-3.9s3.9,1.7,3.9,3.9S470.4,489.5,468.3,489.5z"/>
		<path class="st1" d="M485.6,489.6c-2.2,0-3.9-1.8-3.9-3.9s1.8-3.9,3.9-3.9c2.1,0,3.9,1.8,3.9,3.9S487.7,489.6,485.6,489.6z"/>
		<path class="st1" d="M502.9,489.6c-2.2,0-3.9-1.8-3.9-3.9s1.8-3.9,3.9-3.9c2.1,0,3.9,1.8,3.9,3.9S505,489.6,502.9,489.6z"/>
		<path class="st1" d="M520.2,489.5c-2.1,0-3.9-1.7-3.9-3.9s1.7-3.9,3.9-3.9c2.2,0,3.9,1.7,3.9,3.9S522.4,489.5,520.2,489.5z"/>
		<circle class="st1" cx="537.5" cy="485.8" r="3.8"/>
		<path class="st1" d="M554.8,489.5c-2,0-3.7-1.7-3.7-3.7s1.7-3.7,3.7-3.7s3.7,1.7,3.7,3.7S556.8,489.5,554.8,489.5z"/>
		<path class="st1" d="M572.1,489.4c-2,0-3.6-1.6-3.6-3.6c0-2,1.6-3.6,3.6-3.6s3.6,1.6,3.6,3.6C575.7,487.8,574.1,489.4,572.1,489.4
			z"/>
		<circle class="st1" cx="589.4" cy="485.8" r="3.6"/>
		<path class="st1" d="M606.6,489.3c-2,0-3.6-1.6-3.6-3.6s1.6-3.6,3.6-3.6c2,0,3.6,1.6,3.6,3.6S608.6,489.3,606.6,489.3z"/>
		<circle class="st1" cx="624" cy="485.8" r="3.5"/>
		<circle class="st1" cx="641.3" cy="485.8" r="3.5"/>
		<path class="st1" d="M658.6,489.2c-1.9,0-3.4-1.5-3.4-3.4c0-1.9,1.5-3.4,3.4-3.4c1.9,0,3.4,1.5,3.4,3.4
			C662,487.6,660.5,489.2,658.6,489.2z"/>
		<circle class="st1" cx="675.9" cy="485.8" r="3.4"/>
		<path class="st1" d="M693.2,489c-1.8,0-3.3-1.5-3.3-3.3s1.5-3.3,3.3-3.3s3.3,1.5,3.3,3.3S695,489,693.2,489z"/>
		<path class="st1" d="M710.5,488.9c-1.8,0-3.2-1.4-3.2-3.2c0-1.8,1.4-3.2,3.2-3.2c1.8,0,3.2,1.4,3.2,3.2
			C713.7,487.5,712.3,488.9,710.5,488.9z"/>
		<circle class="st1" cx="727.8" cy="485.8" r="3"/>
		<path class="st1" d="M745.1,488.6c-1.6,0-2.9-1.3-2.9-2.9s1.3-2.9,2.9-2.9s2.9,1.3,2.9,2.9S746.7,488.6,745.1,488.6z"/>
		<path class="st1" d="M762.4,488.5c-1.5,0-2.7-1.2-2.7-2.7s1.2-2.7,2.7-2.7c1.5,0,2.7,1.2,2.7,2.7S763.9,488.5,762.4,488.5z"/>
		<path class="st1" d="M779.7,488.3c-1.4,0-2.6-1.1-2.6-2.6s1.1-2.6,2.6-2.6c1.5,0,2.6,1.1,2.6,2.6S781.2,488.3,779.7,488.3z"/>
		<path class="st1" d="M797,488.1c-1.3,0-2.4-1.1-2.4-2.4s1.1-2.4,2.4-2.4s2.4,1.1,2.4,2.4S798.3,488.1,797,488.1z"/>
		<circle class="st1" cx="814.3" cy="485.8" r="2.2"/>
		<path class="st1" d="M831.6,487.9c-1.2,0-2.1-0.9-2.1-2.1s0.9-2.1,2.1-2.1c1.2,0,2.1,0.9,2.1,2.1S832.8,487.9,831.6,487.9z"/>
		<path class="st1" d="M848.9,487.7c-1.1,0-2-0.8-2-2s0.8-2,2-2c1.1,0,2,0.8,2,2S850,487.7,848.9,487.7z"/>
		<circle class="st1" cx="866.2" cy="485.8" r="1.7"/>
		<path class="st1" d="M883.5,487.2c-0.8,0-1.4-0.6-1.4-1.4c0-0.8,0.6-1.4,1.4-1.4c0.8,0,1.4,0.6,1.4,1.4
			C884.9,486.5,884.3,487.2,883.5,487.2z"/>
		<circle class="st1" cx="900.8" cy="485.8" r="1.2"/>
		<path class="st1" d="M918.1,486.7c-0.5,0-0.9-0.4-0.9-0.9s0.4-0.9,0.9-0.9s0.9,0.4,0.9,0.9S918.6,486.7,918.1,486.7z"/>
		<circle class="st1" cx="935.4" cy="485.8" r="0.7"/>
		<path class="st1" d="M952.7,486.1c0,0-0.4-0.1-0.4-0.4s0.1-0.4,0.4-0.4c0.2,0,0.4,0.1,0.4,0.4S952.9,486.1,952.7,486.1z"/>
	</g>
	<g>
		<path class="st1" d="M46,200.1h10.6c3.6,0,6.3,0.8,8.2,2.4c1.9,1.5,2.9,4,2.9,7.2s-0.9,5.6-2.7,7.4c-1.8,1.8-4.4,2.7-7.9,2.7h-5.1
			v8.9h-6L46,200.1L46,200.1z M56.6,214.4c1.7,0,2.9-0.4,3.7-1.2c0.8-0.8,1.3-2,1.3-3.4c0-3-1.7-4.5-5.1-4.5h-4.5v9.2L56.6,214.4
			L56.6,214.4z"/>
		<path class="st1" d="M69.4,206.5h5l0.4,2.9c2.2-1.9,4.9-3,7.9-3.4l-0.2,5.6c-1.3,0.1-2.5,0.4-3.7,0.7c-1.3,0.4-2.5,0.9-3.5,1.5
			v14.6h-5.9L69.4,206.5L69.4,206.5z"/>
		<path class="st1" d="M85.5,226c-2-2-3-4.8-3-8.3c0-2.2,0.4-4.1,1.3-5.9s2.2-3.1,3.9-4.1c1.7-1,3.7-1.5,6-1.5c3.3,0,5.7,1,7.4,2.9
			c1.6,2,2.4,4.5,2.4,7.4c0,1.1-0.1,2.1-0.3,3H88.8c0,1.4,0.6,2.5,1.8,3.3c1.1,0.8,2.7,1.2,4.7,1.2c2.4,0,4.5-0.4,6.2-1.1l0.5,4.8
			c-2,0.8-4.4,1.2-7.4,1.2C90.6,228.9,87.6,227.9,85.5,226z M97.5,215.5c0,0,0-0.6,0-0.8c-0.1-1.3-0.6-2.3-1.2-3.1
			c-0.6-0.8-1.6-1.1-2.8-1.1c-1.5,0-2.6,0.4-3.4,1.3c-0.8,0.9-1.2,2.1-1.3,3.6H97.5L97.5,215.5z"/>
		<path class="st1" d="M110.2,227.5c-1.8-0.9-3.2-2.2-4.3-3.9c-1-1.7-1.5-3.7-1.5-6.1s0.6-4.3,1.6-6.1c1.1-1.8,2.5-3,4.3-3.9
			c1.9-0.9,4-1.3,6.3-1.3c2.1,0,4.1,0.3,6.2,0.9l-0.7,4.8c-1.5-0.6-3.2-0.8-5-0.8c-2,0-3.6,0.6-4.8,1.6c-1.3,1.1-1.9,2.7-1.9,4.8
			c0,2.1,0.6,3.7,2,4.8c1.3,1.1,2.9,1.7,4.9,1.7c2,0,3.6-0.4,5.2-1l0.5,4.8c-0.7,0.4-1.7,0.6-2.8,0.8c-1.1,0.2-2.3,0.3-3.6,0.3
			C114.1,228.8,112,228.4,110.2,227.5L110.2,227.5z"/>
		<path class="st1" d="M125.3,202.7c-0.7-0.7-1.1-1.6-1.1-2.7c0-1.1,0.4-2,1.1-2.7c0.7-0.7,1.6-1.1,2.7-1.1s2,0.4,2.7,1.1
			c0.8,0.7,1.1,1.6,1.1,2.7c0,1.1-0.4,2-1.1,2.7c-0.8,0.7-1.6,1.1-2.7,1.1S126,203.4,125.3,202.7z M125,206.6h5.9v21.9H125V206.6z"
			/>
		<path class="st1" d="M136.1,225.8c-2-2-3.1-4.8-3.1-8.3c0-2.3,0.5-4.3,1.4-6.1c0.9-1.8,2.3-3,4-3.9c1.7-0.9,3.8-1.3,6.1-1.3
			s4.4,0.4,6.1,1.3c1.8,0.9,3.1,2.2,4,3.9c0.9,1.7,1.4,3.7,1.4,6s-0.5,4.3-1.4,6.1s-2.3,3-4,3.9c-1.8,0.9-3.8,1.3-6.1,1.3
			C140.8,228.8,138,227.8,136.1,225.8L136.1,225.8z M148.5,222.3c1-1.1,1.5-2.7,1.5-4.8c0-2.1-0.5-3.7-1.5-4.9
			c-1.1-1.1-2.3-1.8-4-1.8s-2.9,0.6-4,1.8c-1.1,1.2-1.5,2.8-1.5,4.9c0,2.1,0.5,3.7,1.5,4.8c1.1,1.1,2.4,1.7,4,1.7
			C146.2,224,147.5,223.5,148.5,222.3L148.5,222.3z"/>
		<path class="st1" d="M156.8,227.7l0.5-5c1.1,0.4,2.2,0.7,3.4,1c1.2,0.3,2.3,0.4,3.4,0.4c1.3,0,2.2-0.2,2.9-0.6
			c0.6-0.4,0.9-0.8,0.9-1.4c0-0.4-0.1-0.7-0.4-0.9c-0.2-0.2-0.6-0.5-1.2-0.8s-1.5-0.6-2.7-0.9c-2.3-0.7-4-1.5-5-2.7
			s-1.6-2.5-1.6-4.2c0-2.2,0.9-3.8,2.7-4.9c1.8-1.1,3.9-1.6,6.5-1.6c2.1,0,4.2,0.3,6.4,0.8l-0.4,4.8c-1.8-0.6-3.6-0.9-5.5-0.9
			c-2.4,0-3.6,0.6-3.6,1.6c0,0.5,0.4,0.9,1,1.3s1.8,0.8,3.6,1.3c2.3,0.7,3.9,1.6,4.8,2.6c0.9,1,1.4,2.2,1.4,3.8
			c0,2.5-0.8,4.3-2.6,5.6s-3.9,1.8-6.4,1.8C162,228.8,159.3,228.4,156.8,227.7L156.8,227.7z"/>
		<path class="st1" d="M182.8,200.1h10.6c3.6,0,6.3,0.8,8.2,2.4c1.9,1.5,2.9,4,2.9,7.2s-0.9,5.6-2.7,7.4c-1.8,1.8-4.4,2.7-7.9,2.7
			h-5.1v8.9h-6L182.8,200.1L182.8,200.1z M193.4,214.4c1.7,0,2.9-0.4,3.7-1.2c0.8-0.8,1.3-2,1.3-3.4c0-3-1.7-4.5-5.1-4.5h-4.5v9.2
			L193.4,214.4L193.4,214.4z"/>
		<path class="st1" d="M206.3,206.5h5l0.4,2.9c2.2-1.9,4.9-3,7.9-3.4l-0.2,5.6c-1.3,0.1-2.5,0.4-3.7,0.7c-1.3,0.4-2.5,0.9-3.5,1.5
			v14.6h-5.9L206.3,206.5L206.3,206.5z"/>
		<path class="st1" d="M222.4,226c-2-2-3-4.8-3-8.3c0-2.2,0.4-4.1,1.3-5.9s2.2-3.1,3.9-4.1c1.7-1,3.7-1.5,6-1.5c3.3,0,5.7,1,7.4,2.9
			c1.6,2,2.4,4.5,2.4,7.4c0,1.1-0.1,2.1-0.3,3h-14.4c0,1.4,0.6,2.5,1.8,3.3c1.1,0.8,2.7,1.2,4.7,1.2c2.4,0,4.5-0.4,6.2-1.1l0.5,4.8
			c-2,0.8-4.4,1.2-7.4,1.2C227.4,228.9,224.4,227.9,222.4,226z M234.4,215.5c0,0,0-0.6,0-0.8c-0.1-1.3-0.6-2.3-1.2-3.1
			c-0.6-0.8-1.6-1.1-2.8-1.1c-1.5,0-2.6,0.4-3.4,1.3c-0.8,0.9-1.2,2.1-1.3,3.6H234.4L234.4,215.5z"/>
		<path class="st1" d="M242.3,206.9c0-3.1,0.8-5.5,2.6-7.1s4.2-2.5,7.4-2.5c1.8,0,3.4,0.2,5,0.6l-0.6,4.6c-1.1-0.3-2.3-0.4-3.9-0.4
			c-1.6,0-2.8,0.4-3.5,1c-0.7,0.7-1.1,1.8-1.1,3.2v0.5h8.4l-1.4,5h-7v16.7h-5.9C242.3,228.5,242.3,206.9,242.3,206.9z"/>
		<path class="st1" d="M258.6,226c-2-2-3-4.8-3-8.3c0-2.2,0.4-4.1,1.3-5.9c0.9-1.8,2.2-3.1,3.9-4.1c1.7-1,3.7-1.5,6-1.5
			c3.3,0,5.7,1,7.4,2.9c1.6,2,2.4,4.5,2.4,7.4c0,1.1-0.1,2.1-0.3,3h-14.4c0,1.4,0.6,2.5,1.8,3.3c1.1,0.8,2.7,1.2,4.7,1.2
			c2.4,0,4.5-0.4,6.2-1.1l0.5,4.8c-2,0.8-4.4,1.2-7.4,1.2C263.6,228.9,260.6,227.9,258.6,226z M270.6,215.5c0,0,0-0.6,0-0.8
			c-0.1-1.3-0.6-2.3-1.2-3.1c-0.6-0.8-1.6-1.1-2.8-1.1c-1.5,0-2.6,0.4-3.4,1.3c-0.8,0.9-1.2,2.1-1.3,3.6H270.6L270.6,215.5z"/>
		<path class="st1" d="M278.4,206.5h5l0.4,2.9c2.2-1.9,4.9-3,7.9-3.4l-0.2,5.6c-1.3,0.1-2.5,0.4-3.7,0.7c-1.3,0.4-2.5,0.9-3.5,1.5
			v14.6h-5.9L278.4,206.5L278.4,206.5z"/>
		<path class="st1" d="M294.6,226c-2-2-3-4.8-3-8.3c0-2.2,0.4-4.1,1.3-5.9s2.2-3.1,3.9-4.1c1.7-1,3.7-1.5,6-1.5c3.3,0,5.7,1,7.4,2.9
			c1.6,2,2.4,4.5,2.4,7.4c0,1.1-0.1,2.1-0.3,3h-14.4c0,1.4,0.6,2.5,1.8,3.3c1.1,0.8,2.7,1.2,4.7,1.2c2.4,0,4.5-0.4,6.2-1.1l0.5,4.8
			c-2,0.8-4.4,1.2-7.4,1.2C299.6,228.9,296.6,227.9,294.6,226z M306.5,215.5c0,0,0-0.6,0-0.8c-0.1-1.3-0.6-2.3-1.2-3.1
			c-0.6-0.8-1.6-1.1-2.8-1.1c-1.5,0-2.6,0.4-3.4,1.3c-0.8,0.9-1.2,2.1-1.3,3.6H306.5L306.5,215.5z"/>
		<path class="st1" d="M314.5,206.5h5.2l0.3,2c1.1-0.7,2.2-1.3,3.5-1.7c1.3-0.4,2.5-0.6,3.6-0.6c2.5,0,4.3,0.7,5.6,2.2
			c1.3,1.4,1.9,3.5,1.9,6.4v13.8h-5.9v-13.1c0-0.9-0.1-1.6-0.3-2.1c-0.1-0.5-0.4-0.9-0.8-1.3c-0.6-0.6-1.5-0.8-2.7-0.8
			c-0.8,0-1.6,0.1-2.5,0.4c-0.8,0.3-1.5,0.6-2.2,1.1v15.8h-5.9V206.5L314.5,206.5z"/>
		<path class="st1" d="M342.1,227.5c-1.8-0.9-3.2-2.2-4.3-3.9c-1-1.7-1.5-3.7-1.5-6.1s0.6-4.3,1.6-6.1c1.1-1.8,2.5-3,4.3-3.9
			c1.9-0.9,4-1.3,6.3-1.3c2.1,0,4.1,0.3,6.2,0.9l-0.7,4.8c-1.5-0.6-3.2-0.8-5-0.8c-2,0-3.6,0.6-4.8,1.6c-1.3,1.1-1.9,2.7-1.9,4.8
			c0,2.1,0.6,3.7,2,4.8c1.3,1.1,2.9,1.7,4.9,1.7s3.6-0.4,5.2-1l0.5,4.8c-0.7,0.4-1.7,0.6-2.8,0.8c-1.1,0.2-2.3,0.3-3.6,0.3
			C346,228.8,343.9,228.4,342.1,227.5L342.1,227.5z"/>
		<path class="st1" d="M357.2,202.7c-0.7-0.7-1.1-1.6-1.1-2.7c0-1.1,0.4-2,1.1-2.7c0.7-0.7,1.6-1.1,2.7-1.1s2,0.4,2.7,1.1
			c0.8,0.7,1.1,1.6,1.1,2.7c0,1.1-0.4,2-1.1,2.7c-0.8,0.7-1.6,1.1-2.7,1.1S357.9,203.4,357.2,202.7z M356.9,206.6h5.9v21.9h-5.9
			V206.6z"/>
		<path class="st1" d="M368.5,227.9c-1.3-0.6-2.2-1.5-2.9-2.7c-0.7-1.1-1.1-2.4-1.1-3.9c0-2.1,0.7-3.7,2.2-4.8
			c1.4-1.1,3.8-1.6,7.1-1.6h1.4c1,0,2.1,0,3.2,0.1v-1c0-1.1-0.4-2-1.2-2.5s-2-0.8-3.7-0.8c-2,0-4.2,0.3-6.5,0.9l-0.4-4.7
			c1.1-0.3,2.5-0.6,4-0.8c1.5-0.2,3-0.3,4.4-0.3c2.9,0,5.3,0.6,6.8,1.9c1.6,1.3,2.4,3.2,2.4,5.9v10.2c0,2,0,3.4,0.1,4.3h-5.1
			c-0.1-0.8-0.3-1.5-0.3-2.1h-0.1c-1.6,1.7-3.6,2.5-6.2,2.5C371.1,228.8,369.7,228.5,368.5,227.9L368.5,227.9z M377.2,223.5
			c0.8-0.6,1.2-1.4,1.2-2.4v-2h-5.1c-0.8,0-1.5,0.2-2,0.6c-0.6,0.4-0.8,1-0.8,1.7c0,0.9,0.4,1.7,1,2.2c0.6,0.5,1.5,0.8,2.7,0.8
			c1.3,0,2.2-0.3,3-0.9L377.2,223.5z"/>
		<path class="st1" d="M387.1,199.2l5.9-1.5v30.8h-5.9V199.2z"/>
		<path class="st1" d="M397.7,226c-2-2-3-4.8-3-8.3c0-2.2,0.4-4.1,1.3-5.9c0.9-1.8,2.2-3.1,3.9-4.1c1.7-1,3.7-1.5,6-1.5
			c3.3,0,5.7,1,7.4,2.9c1.6,2,2.4,4.5,2.4,7.4c0,1.1-0.1,2.1-0.3,3h-14.4c0,1.4,0.6,2.5,1.8,3.3c1.1,0.8,2.7,1.2,4.7,1.2
			c2.4,0,4.5-0.4,6.2-1.1l0.5,4.8c-2,0.8-4.4,1.2-7.4,1.2C402.7,228.9,399.7,227.9,397.7,226z M409.7,215.5c0,0,0-0.6,0-0.8
			c-0.1-1.3-0.6-2.3-1.2-3.1c-0.6-0.8-1.6-1.1-2.8-1.1c-1.5,0-2.6,0.4-3.4,1.3c-0.8,0.9-1.2,2.1-1.3,3.6H409.7L409.7,215.5z"/>
		<path class="st1" d="M416.3,227.7l0.5-5c1.1,0.4,2.2,0.7,3.4,1c1.2,0.3,2.3,0.4,3.4,0.4c1.3,0,2.2-0.2,2.9-0.6
			c0.6-0.4,0.9-0.8,0.9-1.4c0-0.4-0.1-0.7-0.4-0.9c-0.2-0.2-0.6-0.5-1.2-0.8c-0.6-0.3-1.5-0.6-2.7-0.9c-2.3-0.7-4-1.5-5-2.7
			s-1.6-2.5-1.6-4.2c0-2.2,0.9-3.8,2.7-4.9c1.8-1.1,3.9-1.6,6.5-1.6c2.1,0,4.2,0.3,6.4,0.8l-0.4,4.8c-1.8-0.6-3.6-0.9-5.5-0.9
			c-2.4,0-3.6,0.6-3.6,1.6c0,0.5,0.4,0.9,1,1.3s1.8,0.8,3.6,1.3c2.3,0.7,3.9,1.6,4.8,2.6c0.9,1,1.4,2.2,1.4,3.8
			c0,2.5-0.8,4.3-2.6,5.6s-3.9,1.8-6.4,1.8C421.5,228.8,418.8,228.4,416.3,227.7L416.3,227.7z"/>
		<path class="st1" d="M444.4,226c-2-1.9-2.9-4.7-2.9-8.5c0-2.2,0.4-4.1,1.3-5.9s2-3.1,3.6-4.1c1.6-1,3.5-1.5,5.7-1.5
			c2.9,0,5.2,0.8,6.7,2.5c1.5,1.7,2.2,3.9,2.2,6.7c0,1.2,0,2.2-0.1,3.1h-16.2c0.1,2.5,0.8,4.5,2.2,5.9c1.3,1.4,3.4,2.1,6.2,2.1
			c1,0,2-0.1,3.2-0.4c1.1-0.2,2.2-0.6,3.2-1l0.5,2.3c-2.4,1.1-4.8,1.5-7.2,1.5C449,228.9,446.3,228,444.4,226L444.4,226z M457.8,216
			c0,0,0-0.6,0-1.1c0-1.8-0.5-3.4-1.5-4.5c-1-1.1-2.5-1.8-4.6-1.8s-3.9,0.7-5.2,2c-1.3,1.3-2,3.2-2.1,5.3H457.8L457.8,216z"/>
		<path class="st1" d="M463.9,206.5h2.7l0.3,2c1.1-0.7,2.5-1.3,3.9-1.8c1.4-0.4,2.8-0.6,4.1-0.6c2.5,0,4.5,0.7,5.7,2
			c0.6,0.6,1.1,1.4,1.3,2.3s0.4,2,0.4,3.3v14.7h-3v-14.4c0-1.8-0.4-3-1.1-3.9c-0.4-0.6-0.9-0.9-1.5-1.2c-0.6-0.2-1.5-0.4-2.5-0.4
			c-1.3,0-2.5,0.2-3.8,0.6c-1.3,0.4-2.5,1.1-3.5,1.8v17.4h-3v-21.9L463.9,206.5z"/>
		<path class="st1" d="M495.5,226c-2-1.9-2.9-4.7-2.9-8.5c0-2.2,0.4-4.1,1.3-5.9s2-3.1,3.6-4.1c1.6-1,3.5-1.5,5.7-1.5
			c2.9,0,5.2,0.8,6.7,2.5c1.5,1.7,2.2,3.9,2.2,6.7c0,1.2,0,2.2-0.1,3.1h-16.2c0.1,2.5,0.8,4.5,2.2,5.9c1.3,1.4,3.4,2.1,6.2,2.1
			c1,0,2-0.1,3.2-0.4c1.1-0.2,2.2-0.6,3.2-1l0.5,2.3c-2.4,1.1-4.8,1.5-7.2,1.5C500.1,228.9,497.4,228,495.5,226L495.5,226z
			 M508.9,216c0,0,0-0.6,0-1.1c0-1.8-0.5-3.4-1.5-4.5c-1-1.1-2.5-1.8-4.6-1.8s-3.9,0.7-5.2,2c-1.3,1.3-2,3.2-2.1,5.3H508.9
			L508.9,216z"/>
		<path class="st1" d="M515.1,198.5l3-0.9v30.8h-3V198.5z"/>
		<path class="st1" d="M530,206.5h2.8l0.2,3.4c0.8-1.2,2-2.1,3.4-2.7c1.4-0.6,2.9-1,4.5-1c1.8,0,3.5,0.4,5,1.3
			c1.5,0.9,2.8,2.2,3.7,3.9c0.9,1.7,1.4,3.6,1.4,6s-0.5,4.3-1.4,6.1c-0.9,1.8-2.2,3.1-3.9,4.1c-1.6,1-3.5,1.4-5.5,1.4
			c-1.5,0-2.9-0.3-4.2-0.8s-2.3-1.2-3.2-2v11.3l-3,0.9L530,206.5L530,206.5z M546,223.8c1.3-1.7,2-3.9,2-6.4c0-1.8-0.4-3.4-1-4.8
			c-0.6-1.3-1.5-2.3-2.7-3c-1.1-0.7-2.5-1-3.9-1c-1.3,0-2.5,0.3-3.6,0.9c-1.1,0.6-2,1.4-2.7,2.5c-0.6,1.1-1,2.1-1,3.3v7.8
			c0.8,1,1.9,1.8,3.2,2.5c1.3,0.6,2.7,0.9,4.1,0.9C542.8,226.4,544.7,225.6,546,223.8L546,223.8z"/>
		<path class="st1" d="M554.3,206.5h2.8l0.3,3.2c0.9-0.9,2-1.8,3.4-2.4c1.4-0.6,2.9-1.1,4.4-1.1l-0.1,2.9c-1.3,0-2.7,0.4-4.1,0.9
			c-1.4,0.6-2.6,1.3-3.6,2.1v16.4h-3L554.3,206.5L554.3,206.5z"/>
		<path class="st1" d="M569.7,227.4c-1.6-1-2.9-2.4-3.7-4.1c-0.8-1.7-1.3-3.6-1.3-5.7c0-2.1,0.4-4.1,1.3-5.8
			c0.8-1.8,2.1-3.1,3.8-4.1c1.7-1,3.7-1.5,6-1.5c2.2,0,4.1,0.5,5.7,1.5c1.6,1,2.8,2.4,3.6,4.1c0.8,1.7,1.3,3.6,1.3,5.8
			s-0.4,4-1.3,5.7c-0.8,1.7-2.1,3.1-3.8,4.1c-1.7,1.1-3.6,1.5-6,1.5C573.1,228.9,571.2,228.4,569.7,227.4L569.7,227.4z M581.2,224.1
			c1.4-1.6,2.1-3.8,2.1-6.6s-0.7-4.9-2.1-6.5c-1.4-1.6-3.3-2.4-5.6-2.4s-4.2,0.8-5.6,2.4c-1.4,1.6-2.1,3.8-2.1,6.5
			c0,1.8,0.4,3.4,1,4.8c0.6,1.3,1.5,2.4,2.7,3.2c1.2,0.7,2.5,1.1,4,1.1C578,226.5,579.8,225.8,581.2,224.1L581.2,224.1z"/>
		<path class="st1" d="M593.3,227.5c-1.6-0.9-2.9-2.2-3.7-4s-1.3-3.6-1.3-5.8s0.5-4.3,1.5-6c1-1.8,2.3-3.1,4.1-4.1
			c1.7-1,3.5-1.4,5.5-1.4c1.5,0,2.9,0.3,4.1,0.8c1.2,0.6,2.1,1.2,2.7,2h0.1v-10.4l3-0.9V223c0,1.3,0,3.2,0.1,5.5h-2.5
			c-0.1-0.6-0.2-1.5-0.4-3h-0.1c-0.8,1-1.9,1.8-3.2,2.5c-1.3,0.6-2.7,1-4.3,1C596.7,228.9,594.9,228.4,593.3,227.5L593.3,227.5z
			 M603.4,225.3c1.3-0.8,2.2-1.8,2.9-2.9v-7.2c0-1.9-0.6-3.4-1.9-4.7c-1.3-1.3-2.9-1.9-5.1-1.9c-1.5,0-2.9,0.4-4.1,1.1
			c-1.2,0.8-2.1,1.8-2.8,3.2s-1,2.9-1,4.6s0.4,3.4,1,4.7c0.7,1.3,1.6,2.3,2.8,3c1.2,0.7,2.5,1.1,3.9,1.1c1.5,0,2.9-0.4,4.2-1.1
			L603.4,225.3z"/>
		<path class="st1" d="M616.2,226.8c-1.7-1.4-2.5-3.6-2.5-6.5v-13.7h3v13.8c0,2,0.6,3.4,1.8,4.5c1.1,1.1,2.7,1.5,4.7,1.5
			s3.4-0.6,4.4-1.6c1-1.1,1.5-2.5,1.5-4.5v-13.8h3v13.7c0,2.7-0.8,4.8-2.4,6.3c-1.5,1.5-3.8,2.3-6.7,2.3S617.8,228.1,616.2,226.8
			L616.2,226.8z"/>
		<path class="st1" d="M640.5,227.5c-1.7-0.9-3-2.2-4-3.9c-0.9-1.8-1.4-3.8-1.4-6.2c0-2.4,0.5-4.3,1.5-6c1-1.7,2.4-3,4.1-3.9
			c1.8-0.9,3.6-1.3,5.7-1.3c2.5,0,4.6,0.4,6.4,1.2l-0.5,2.5c-0.8-0.4-1.7-0.6-2.7-0.8c-1.1-0.2-2.1-0.4-3.1-0.4
			c-1.7,0-3.2,0.4-4.4,1.1s-2.2,1.8-2.9,3.1c-0.7,1.3-1.1,2.8-1.1,4.5c0,2.7,0.7,4.8,2.1,6.5c1.4,1.8,3.6,2.5,6.5,2.5
			c1,0,2-0.1,3-0.4c1.1-0.2,2-0.6,2.9-1l0.5,2.3c-2.2,1-4.5,1.5-6.8,1.5S642.3,228.5,640.5,227.5L640.5,227.5z"/>
		<path class="st1" d="M657.6,227.2c-1.1-1-1.6-2.5-1.6-4.6v-20.9l3-0.9v6.2h7.9l-1.1,2.5H659v12.7c0,1.5,0.3,2.5,0.8,3.2
			c0.6,0.6,1.5,0.9,2.9,0.9s2.7-0.1,3.9-0.5l0.2,2.2c-1.3,0.4-2.7,0.6-4.3,0.6C660.3,228.6,658.7,228.1,657.6,227.2L657.6,227.2z"/>
		<path class="st1" d="M671.7,227.4c-1.6-1-2.9-2.4-3.7-4.1c-0.8-1.7-1.3-3.6-1.3-5.7c0-2.1,0.4-4.1,1.3-5.8
			c0.8-1.8,2.1-3.1,3.8-4.1c1.7-1,3.7-1.5,6-1.5c2.2,0,4.1,0.5,5.7,1.5s2.8,2.4,3.6,4.1c0.8,1.7,1.3,3.6,1.3,5.8s-0.4,4-1.3,5.7
			c-0.8,1.7-2.1,3.1-3.8,4.1c-1.7,1.1-3.6,1.5-6,1.5C675.1,228.9,673.2,228.4,671.7,227.4L671.7,227.4z M683.2,224.1
			c1.4-1.6,2.1-3.8,2.1-6.6s-0.7-4.9-2.1-6.5c-1.4-1.6-3.3-2.4-5.6-2.4s-4.2,0.8-5.6,2.4c-1.4,1.6-2.1,3.8-2.1,6.5
			c0,1.8,0.4,3.4,1,4.8c0.6,1.3,1.5,2.4,2.7,3.2c1.2,0.7,2.5,1.1,4,1.1C680,226.5,681.8,225.8,683.2,224.1L683.2,224.1z"/>
		<path class="st1" d="M698.8,206.5h2.8l0.3,3.2c0.9-0.9,2-1.8,3.4-2.4c1.4-0.6,2.9-1.1,4.4-1.1l-0.1,2.9c-1.3,0-2.7,0.4-4.1,0.9
			c-1.4,0.6-2.6,1.3-3.6,2.1v16.4h-3L698.8,206.5L698.8,206.5z"/>
		<path class="st1" d="M712.2,226c-2-1.9-2.9-4.7-2.9-8.5c0-2.2,0.4-4.1,1.3-5.9c0.8-1.8,2-3.1,3.6-4.1c1.6-1,3.5-1.5,5.7-1.5
			c2.9,0,5.2,0.8,6.7,2.5c1.5,1.7,2.2,3.9,2.2,6.7c0,1.2,0,2.2-0.1,3.1h-16.2c0.1,2.5,0.8,4.5,2.2,5.9c1.3,1.4,3.4,2.1,6.2,2.1
			c1,0,2-0.1,3.2-0.4c1.1-0.2,2.2-0.6,3.2-1l0.5,2.3c-2.4,1.1-4.8,1.5-7.2,1.5C716.8,228.9,714.2,228,712.2,226L712.2,226z
			 M725.7,216c0,0,0-0.6,0-1.1c0-1.8-0.5-3.4-1.5-4.5c-1-1.1-2.5-1.8-4.6-1.8c-2.2,0-3.9,0.7-5.2,2c-1.3,1.3-2,3.2-2.1,5.3H725.7
			L725.7,216z"/>
		<path class="st1" d="M735.7,227.5c-1.7-0.9-3-2.2-4-3.9c-0.9-1.8-1.4-3.8-1.4-6.2c0-2.4,0.5-4.3,1.5-6c1-1.7,2.4-3,4.1-3.9
			c1.8-0.9,3.6-1.3,5.7-1.3c2.5,0,4.6,0.4,6.4,1.2l-0.5,2.5c-0.8-0.4-1.7-0.6-2.7-0.8c-1.1-0.2-2.1-0.4-3.1-0.4
			c-1.7,0-3.2,0.4-4.4,1.1s-2.2,1.8-2.9,3.1c-0.7,1.3-1.1,2.8-1.1,4.5c0,2.7,0.7,4.8,2.1,6.5c1.4,1.8,3.6,2.5,6.5,2.5
			c1,0,2-0.1,3-0.4c1.1-0.2,2-0.6,2.9-1l0.5,2.3c-2.2,1-4.5,1.5-6.8,1.5S737.5,228.5,735.7,227.5L735.7,227.5z"/>
		<path class="st1" d="M754.1,227.4c-1.6-1-2.9-2.4-3.7-4.1c-0.8-1.7-1.3-3.6-1.3-5.7c0-2.1,0.4-4.1,1.3-5.8
			c0.8-1.8,2.1-3.1,3.8-4.1c1.7-1,3.7-1.5,6-1.5c2.2,0,4.1,0.5,5.7,1.5s2.8,2.4,3.6,4.1c0.8,1.7,1.3,3.6,1.3,5.8s-0.4,4-1.3,5.7
			c-0.8,1.7-2.1,3.1-3.8,4.1c-1.7,1.1-3.6,1.5-6,1.5C757.6,228.9,755.7,228.4,754.1,227.4L754.1,227.4z M765.7,224.1
			c1.4-1.6,2.1-3.8,2.1-6.6s-0.7-4.9-2.1-6.5c-1.4-1.6-3.3-2.4-5.6-2.4s-4.2,0.8-5.6,2.4c-1.4,1.6-2.1,3.8-2.1,6.5
			c0,1.8,0.4,3.4,1,4.8c0.6,1.3,1.5,2.4,2.7,3.2c1.2,0.7,2.5,1.1,4,1.1C762.5,226.5,764.3,225.8,765.7,224.1L765.7,224.1z"/>
		<path class="st1" d="M774.2,206.5h2.7l0.3,2c1.1-0.7,2.2-1.3,3.5-1.7s2.5-0.6,3.8-0.6s2.4,0.2,3.4,0.7c1.1,0.5,1.9,1.1,2.5,2
			c1.1-0.8,2.4-1.4,3.9-1.9c1.5-0.5,2.9-0.7,4.2-0.7c2.4,0,4.1,0.7,5.4,2c1.3,1.3,1.9,3.2,1.9,5.8v14.5h-3v-13.3
			c0-2-0.3-3.4-0.9-4.6c-0.8-1.3-2.2-2-4.1-2c-1,0-2.2,0.2-3.4,0.7c-1.3,0.4-2.3,1-3.2,1.7c0.2,0.9,0.4,2,0.4,3.5v14h-3v-13.3
			c0-1.1,0-2-0.1-2.7c-0.1-0.7-0.3-1.3-0.6-1.8c-0.8-1.3-2.1-2-4-2c-1.2,0-2.4,0.2-3.5,0.7c-1.2,0.5-2.2,1.1-2.9,1.7v17.4h-3v-21.9
			L774.2,206.5z"/>
		<path class="st1" d="M811.7,226c-2-1.9-2.9-4.7-2.9-8.5c0-2.2,0.4-4.1,1.3-5.9c0.8-1.8,2-3.1,3.6-4.1c1.6-1,3.5-1.5,5.7-1.5
			c2.9,0,5.2,0.8,6.7,2.5c1.5,1.7,2.2,3.9,2.2,6.7c0,1.2,0,2.2-0.1,3.1h-16.2c0.1,2.5,0.8,4.5,2.2,5.9c1.3,1.4,3.4,2.1,6.2,2.1
			c1,0,2-0.1,3.2-0.4c1.1-0.2,2.2-0.6,3.2-1l0.5,2.3c-2.4,1.1-4.8,1.5-7.2,1.5C816.3,228.9,813.6,228,811.7,226L811.7,226z
			 M825.1,216c0,0,0-0.6,0-1.1c0-1.8-0.5-3.4-1.5-4.5c-1-1.1-2.5-1.8-4.6-1.8c-2.2,0-3.9,0.7-5.2,2c-1.3,1.3-2,3.2-2.1,5.3H825.1
			L825.1,216z"/>
		<path class="st1" d="M831.2,206.5h2.7l0.3,2c1.1-0.7,2.5-1.3,3.9-1.8s2.8-0.6,4.1-0.6c2.5,0,4.5,0.7,5.7,2c0.6,0.6,1,1.4,1.3,2.3
			s0.4,2,0.4,3.3v14.7h-3v-14.4c0-1.8-0.4-3-1-3.9c-0.4-0.6-0.9-0.9-1.5-1.2c-0.6-0.2-1.5-0.4-2.5-0.4c-1.3,0-2.5,0.2-3.8,0.6
			s-2.5,1.1-3.5,1.8v17.4h-3v-21.9L831.2,206.5z"/>
		<path class="st1" d="M857.7,227.5c-1.6-0.9-2.9-2.2-3.7-4c-0.8-1.8-1.3-3.6-1.3-5.8s0.5-4.3,1.5-6s2.3-3.1,4.1-4.1
			c1.7-1,3.5-1.4,5.5-1.4c1.5,0,2.9,0.3,4.1,0.8c1.2,0.6,2.1,1.2,2.7,2h0.1v-10.4l3-0.9V223c0,1.3,0,3.2,0.1,5.5h-2.5
			c-0.1-0.6-0.2-1.5-0.4-3h-0.1c-0.8,1-1.9,1.8-3.2,2.5c-1.3,0.6-2.7,1-4.3,1C861.1,228.9,859.3,228.4,857.7,227.5L857.7,227.5z
			 M867.8,225.3c1.3-0.8,2.2-1.8,2.9-2.9v-7.2c0-1.9-0.6-3.4-1.9-4.7c-1.3-1.3-2.9-1.9-5.1-1.9c-1.5,0-2.9,0.4-4.1,1.1
			c-1.2,0.8-2.1,1.8-2.8,3.2c-0.7,1.3-1,2.9-1,4.6s0.4,3.4,1,4.7c0.7,1.3,1.6,2.3,2.8,3c1.2,0.7,2.5,1.1,3.9,1.1
			c1.5,0,2.9-0.4,4.2-1.1L867.8,225.3z"/>
		<path class="st1" d="M879.4,227c-1.5-1.3-2.2-3-2.2-5.2c0-1.8,0.6-3.1,1.9-4.1s3-1.5,5.4-1.5h3.5c1,0,2.3,0,3.8,0.1v-2
			c0-2-0.5-3.5-1.4-4.4c-1-0.9-2.5-1.4-4.4-1.4c-2.1,0-4.3,0.4-6.6,1l-0.4-2.4c1-0.3,2.2-0.6,3.5-0.8s2.6-0.3,3.9-0.3
			c2.7,0,4.8,0.6,6.2,2c1.5,1.3,2.2,3.2,2.2,5.7v9.1c0,1.3,0,3.2,0.1,5.5h-2.5c-0.1-0.6-0.2-1.5-0.4-2.7h-0.1
			c-0.6,1-1.5,1.8-2.6,2.3c-1.1,0.6-2.5,0.8-4.2,0.8C882.8,228.8,880.9,228.2,879.4,227L879.4,227z M890,224.9
			c1.1-1,1.7-2.3,1.7-4.1v-2.2H884c-1.2,0-2.1,0.2-2.7,0.7c-0.6,0.5-1,1.3-1,2.4c0,1.5,0.5,2.6,1.5,3.4c1,0.8,2.2,1.2,3.7,1.2
			C887.4,226.3,888.8,225.8,890,224.9L890,224.9z"/>
		<path class="st1" d="M903,227.5c-1.6-0.9-2.9-2.2-3.7-4c-0.8-1.8-1.3-3.6-1.3-5.8s0.5-4.3,1.5-6s2.3-3.1,4.1-4.1
			c1.7-1,3.5-1.4,5.5-1.4c1.5,0,2.9,0.3,4.1,0.8c1.2,0.6,2.1,1.2,2.7,2h0.1v-10.4l3-0.9V223c0,1.3,0,3.2,0.1,5.5h-2.5
			c-0.1-0.6-0.2-1.5-0.4-3h-0.1c-0.8,1-1.9,1.8-3.2,2.5c-1.3,0.6-2.7,1-4.3,1C906.4,228.9,904.6,228.4,903,227.5L903,227.5z
			 M913.1,225.3c1.3-0.8,2.2-1.8,2.9-2.9v-7.2c0-1.9-0.6-3.4-1.9-4.7c-1.3-1.3-2.9-1.9-5.1-1.9c-1.5,0-2.9,0.4-4.1,1.1
			c-1.2,0.8-2.1,1.8-2.8,3.2c-0.7,1.3-1,2.9-1,4.6s0.4,3.4,1,4.7c0.7,1.3,1.6,2.3,2.8,3c1.2,0.7,2.5,1.1,3.9,1.1
			c1.5,0,2.9-0.4,4.2-1.1L913.1,225.3z"/>
		<path class="st1" d="M926.6,227.4c-1.6-1-2.9-2.4-3.7-4.1c-0.8-1.7-1.3-3.6-1.3-5.7c0-2.1,0.4-4.1,1.3-5.8
			c0.8-1.8,2.1-3.1,3.8-4.1c1.7-1,3.7-1.5,6-1.5c2.2,0,4.1,0.5,5.7,1.5c1.6,1,2.8,2.4,3.6,4.1c0.8,1.7,1.3,3.6,1.3,5.8
			s-0.4,4-1.3,5.7c-0.8,1.7-2.1,3.1-3.8,4.1c-1.7,1.1-3.6,1.5-6,1.5C930,228.9,928.1,228.4,926.6,227.4L926.6,227.4z M938.1,224.1
			c1.4-1.6,2.1-3.8,2.1-6.6s-0.7-4.9-2.1-6.5c-1.4-1.6-3.3-2.4-5.6-2.4s-4.2,0.8-5.6,2.4c-1.4,1.6-2.1,3.8-2.1,6.5
			c0,1.8,0.4,3.4,1,4.8c0.6,1.3,1.5,2.4,2.7,3.2c1.2,0.7,2.5,1.1,4,1.1C934.9,226.5,936.7,225.8,938.1,224.1L938.1,224.1z"/>
		<path class="st1" d="M103,248.5h2.8l0.2,3.4c0.8-1.2,2-2.1,3.4-2.7c1.4-0.6,2.9-1,4.5-1c1.8,0,3.5,0.4,5,1.3s2.8,2.2,3.7,3.9
			c0.9,1.7,1.4,3.6,1.4,6s-0.5,4.3-1.4,6.1c-0.9,1.8-2.2,3.1-3.9,4.1c-1.6,1-3.5,1.4-5.5,1.4c-1.5,0-2.9-0.3-4.2-0.8s-2.3-1.2-3.2-2
			v11.3l-3,0.9L103,248.5L103,248.5z M118.9,265.8c1.3-1.7,2-3.9,2-6.4c0-1.8-0.4-3.4-1-4.8c-0.6-1.3-1.5-2.3-2.7-3
			c-1.1-0.7-2.5-1-3.9-1c-1.3,0-2.5,0.3-3.6,0.9c-1.1,0.6-2,1.4-2.7,2.5c-0.6,1.1-1,2.1-1,3.3v7.8c0.8,1,1.9,1.8,3.2,2.5
			c1.3,0.6,2.7,0.9,4.1,0.9C115.8,268.4,117.7,267.6,118.9,265.8L118.9,265.8z"/>
		<path class="st1" d="M130.8,269.4c-1.6-1-2.9-2.4-3.7-4.1c-0.8-1.7-1.3-3.6-1.3-5.7c0-2.1,0.4-4.1,1.3-5.8
			c0.8-1.8,2.1-3.1,3.8-4.1c1.7-1,3.7-1.5,6-1.5c2.2,0,4.1,0.5,5.7,1.5c1.6,1,2.8,2.4,3.6,4.1s1.3,3.6,1.3,5.8c0,2.2-0.4,4-1.3,5.7
			s-2.1,3.1-3.8,4.1c-1.7,1.1-3.6,1.5-6,1.5C134.3,270.9,132.4,270.4,130.8,269.4L130.8,269.4z M142.4,266.1
			c1.4-1.6,2.1-3.8,2.1-6.6s-0.7-4.9-2.1-6.5c-1.4-1.6-3.3-2.4-5.6-2.4s-4.2,0.8-5.6,2.4c-1.4,1.6-2.1,3.8-2.1,6.5
			c0,1.8,0.4,3.4,1,4.8c0.6,1.3,1.5,2.4,2.7,3.2c1.2,0.7,2.5,1.1,4,1.1C139.2,268.5,141,267.8,142.4,266.1L142.4,266.1z"/>
		<path class="st1" d="M150.9,248.5h2.8l0.3,3.2c0.9-0.9,2-1.8,3.4-2.4c1.4-0.6,2.9-1.1,4.4-1.1l-0.1,2.9c-1.3,0-2.7,0.4-4.1,0.9
			c-1.4,0.6-2.6,1.3-3.6,2.1v16.4h-3L150.9,248.5L150.9,248.5z"/>
		<path class="st1" d="M172.8,270.4c-1.3-0.3-2.3-0.7-3.3-1.2l0.3-2.6c1,0.6,2.1,0.9,3.3,1.3c1.2,0.4,2.4,0.4,3.5,0.4
			c1.6,0,2.9-0.4,3.7-1c0.9-0.6,1.3-1.5,1.3-2.7c0-0.8-0.1-1.5-0.5-1.9c-0.3-0.5-0.8-0.8-1.4-1.2s-1.6-0.7-3-1.2
			c-2.5-0.9-4.2-1.8-5.2-2.9c-1-1-1.5-2.2-1.5-3.8c0-1.8,0.7-3.1,2.1-4.1c1.4-1,3.3-1.5,5.6-1.5c1.9,0,3.8,0.4,5.6,1l-0.4,2.5
			c-1.8-0.6-3.6-1-5.2-1c-1.5,0-2.7,0.3-3.6,0.8c-0.8,0.6-1.3,1.3-1.3,2.3c0,0.9,0.4,1.7,1.1,2.3c0.7,0.6,2,1.3,4,2
			c2.2,0.8,3.9,1.6,4.9,2.5c1.1,0.9,1.5,2.2,1.5,3.9c0,2-0.7,3.6-2.2,4.8c-1.5,1.1-3.4,1.7-5.7,1.7
			C175.3,270.8,174,270.6,172.8,270.4L172.8,270.4z"/>
		<path class="st1" d="M189.8,268.8c-1.7-1.4-2.5-3.6-2.5-6.5v-13.7h3v13.8c0,2,0.6,3.4,1.8,4.5c1.1,1.1,2.7,1.5,4.7,1.5
			s3.4-0.6,4.4-1.6c1-1.1,1.5-2.5,1.5-4.5v-13.8h3v13.7c0,2.7-0.8,4.8-2.4,6.3c-1.5,1.5-3.8,2.3-6.7,2.3S191.5,270.1,189.8,268.8
			L189.8,268.8z"/>
		<path class="st1" d="M220.9,269.4c-1.6-1-2.9-2.4-3.7-4.1s-1.3-3.6-1.3-5.7c0-2.1,0.4-4.1,1.3-5.8s2.1-3.1,3.8-4.1
			c1.7-1,3.7-1.5,6-1.5c2.2,0,4.1,0.5,5.7,1.5c1.6,1,2.8,2.4,3.6,4.1c0.8,1.7,1.3,3.6,1.3,5.8c0,2.2-0.4,4-1.3,5.7
			c-0.8,1.7-2.1,3.1-3.8,4.1c-1.7,1.1-3.6,1.5-6,1.5C224.3,270.9,222.4,270.4,220.9,269.4L220.9,269.4z M232.4,266.1
			c1.4-1.6,2.1-3.8,2.1-6.6s-0.7-4.9-2.1-6.5c-1.4-1.6-3.3-2.4-5.6-2.4s-4.2,0.8-5.6,2.4c-1.4,1.6-2.1,3.8-2.1,6.5
			c0,1.8,0.4,3.4,1,4.8c0.6,1.3,1.5,2.4,2.7,3.2c1.2,0.7,2.5,1.1,4,1.1C229.2,268.5,231,267.8,232.4,266.1L232.4,266.1z"/>
		<path class="st1" d="M244.6,269.5c-1.6-0.9-2.9-2.2-3.7-4c-0.8-1.8-1.3-3.6-1.3-5.8s0.5-4.3,1.5-6c1-1.8,2.3-3.1,4.1-4.1
			c1.7-1,3.5-1.4,5.5-1.4c1.5,0,2.9,0.3,4.1,0.8c1.2,0.6,2.1,1.2,2.7,2h0.1v-10.4l3-0.9V265c0,1.3,0,3.2,0.1,5.5H258
			c-0.1-0.6-0.2-1.5-0.4-3h-0.1c-0.8,1-1.9,1.8-3.2,2.5s-2.7,1-4.3,1C248,270.9,246.1,270.4,244.6,269.5L244.6,269.5z M254.6,267.3
			c1.3-0.8,2.2-1.8,2.9-2.9v-7.2c0-1.9-0.6-3.4-1.9-4.7c-1.3-1.3-2.9-1.9-5.1-1.9c-1.5,0-2.9,0.4-4.1,1.1c-1.2,0.8-2.1,1.8-2.8,3.2
			s-1,2.9-1,4.6s0.4,3.4,1,4.7c0.7,1.3,1.6,2.3,2.8,3c1.2,0.7,2.5,1.1,3.9,1.1c1.5,0,2.9-0.4,4.2-1.1L254.6,267.3z"/>
		<path class="st1" d="M268.1,269.4c-1.6-1-2.9-2.4-3.7-4.1c-0.8-1.7-1.3-3.6-1.3-5.7c0-2.1,0.4-4.1,1.3-5.8
			c0.8-1.8,2.1-3.1,3.8-4.1c1.7-1,3.7-1.5,6-1.5c2.2,0,4.1,0.5,5.7,1.5c1.6,1,2.8,2.4,3.6,4.1c0.8,1.7,1.3,3.6,1.3,5.8
			c0,2.2-0.4,4-1.3,5.7c-0.8,1.7-2.1,3.1-3.8,4.1c-1.7,1.1-3.6,1.5-6,1.5C271.5,270.9,269.7,270.4,268.1,269.4L268.1,269.4z
			 M279.7,266.1c1.4-1.6,2.1-3.8,2.1-6.6s-0.7-4.9-2.1-6.5c-1.4-1.6-3.3-2.4-5.6-2.4s-4.2,0.8-5.6,2.4c-1.4,1.6-2.1,3.8-2.1,6.5
			c0,1.8,0.4,3.4,1,4.8c0.6,1.3,1.5,2.4,2.7,3.2c1.2,0.7,2.5,1.1,4,1.1C276.4,268.5,278.3,267.8,279.7,266.1L279.7,266.1z"/>
		<path class="st1" d="M288.1,248.5h2.7l0.3,2c1.1-0.7,2.5-1.3,3.9-1.8c1.4-0.4,2.8-0.6,4.1-0.6c2.5,0,4.5,0.7,5.7,2
			c0.6,0.6,1.1,1.4,1.3,2.3c0.3,0.9,0.4,2,0.4,3.3v14.7h-3v-14.4c0-1.8-0.4-3-1.1-3.9c-0.4-0.6-0.9-0.9-1.5-1.2
			c-0.6-0.2-1.5-0.4-2.5-0.4c-1.3,0-2.5,0.2-3.8,0.6c-1.3,0.4-2.5,1.1-3.5,1.8v17.4h-3v-21.9L288.1,248.5z"/>
		<path class="st1" d="M312.5,269.2c-1.1-1-1.6-2.5-1.6-4.6v-20.9l3-0.9v6.2h7.9l-1.1,2.5h-6.9v12.7c0,1.5,0.3,2.5,0.8,3.2
			c0.6,0.6,1.5,0.9,2.9,0.9c1.4,0,2.7-0.1,3.9-0.5l0.2,2.2c-1.3,0.4-2.7,0.6-4.3,0.6C315.2,270.6,313.5,270.1,312.5,269.2
			L312.5,269.2z"/>
		<path class="st1" d="M326.6,269.4c-1.6-1-2.9-2.4-3.7-4.1s-1.3-3.6-1.3-5.7c0-2.1,0.4-4.1,1.3-5.8s2.1-3.1,3.8-4.1
			c1.7-1,3.7-1.5,6-1.5c2.2,0,4.1,0.5,5.7,1.5s2.8,2.4,3.6,4.1s1.3,3.6,1.3,5.8c0,2.2-0.4,4-1.3,5.7s-2.1,3.1-3.8,4.1
			c-1.7,1.1-3.6,1.5-6,1.5C330,270.9,328.1,270.4,326.6,269.4L326.6,269.4z M338.1,266.1c1.4-1.6,2.1-3.8,2.1-6.6s-0.7-4.9-2.1-6.5
			c-1.4-1.6-3.3-2.4-5.6-2.4s-4.2,0.8-5.6,2.4c-1.4,1.6-2.1,3.8-2.1,6.5c0,1.8,0.4,3.4,1,4.8c0.6,1.3,1.5,2.4,2.7,3.2
			c1.2,0.7,2.5,1.1,4,1.1C334.9,268.5,336.7,267.8,338.1,266.1L338.1,266.1z M328.6,243.8l8.8-5.2l1.7,2.7l-9.2,4.6L328.6,243.8z"/>
		<path class="st1" d="M346.7,240.5l3-0.9v30.8h-3V240.5z"/>
		<path class="st1" d="M357.4,269.4c-1.6-1-2.9-2.4-3.7-4.1c-0.8-1.7-1.3-3.6-1.3-5.7c0-2.1,0.4-4.1,1.3-5.8
			c0.8-1.8,2.1-3.1,3.8-4.1c1.7-1,3.7-1.5,6-1.5c2.2,0,4.1,0.5,5.7,1.5c1.6,1,2.8,2.4,3.6,4.1c0.8,1.7,1.3,3.6,1.3,5.8
			c0,2.2-0.4,4-1.3,5.7s-2.1,3.1-3.8,4.1c-1.7,1.1-3.6,1.5-6,1.5C360.9,270.9,359,270.4,357.4,269.4L357.4,269.4z M369,266.1
			c1.4-1.6,2.1-3.8,2.1-6.6s-0.7-4.9-2.1-6.5c-1.4-1.6-3.3-2.4-5.6-2.4s-4.2,0.8-5.6,2.4c-1.4,1.6-2.1,3.8-2.1,6.5
			c0,1.8,0.4,3.4,1,4.8c0.6,1.3,1.5,2.4,2.7,3.2c1.2,0.7,2.5,1.1,4,1.1C365.8,268.5,367.6,267.8,369,266.1L369,266.1z"/>
		<path class="st1" d="M383.2,280.2c-1.2-0.2-2.2-0.5-2.9-0.8l0.2-2.4c0.9,0.4,2,0.6,3,0.8c1.1,0.2,2.2,0.3,3.2,0.3
			c2.5,0,4.3-0.7,5.6-2.2c1.3-1.5,1.9-3.6,1.9-6.4v-1.9c-0.7,0.9-1.8,1.7-3,2.2c-1.3,0.6-2.7,0.9-4.3,0.9c-2.1,0-4-0.5-5.7-1.5
			c-1.6-1-2.9-2.3-3.8-4s-1.3-3.6-1.3-5.7c0-2.2,0.5-4.3,1.5-6c1.1-1.8,2.4-3.1,4.1-4c1.8-0.9,3.6-1.4,5.7-1.4c1.4,0,2.7,0.3,4,0.8
			c1.3,0.6,2.2,1.3,2.8,2.1l0.4-2.6h2.5v20.1c0,3.8-0.8,6.7-2.5,8.8c-1.7,2-4.2,3.1-7.6,3.1C385.6,280.4,384.4,280.3,383.2,280.2
			L383.2,280.2z M391.1,267.3c1.2-0.6,2.2-1.4,2.9-2.3v-8.8c0-1-0.3-2-0.8-2.8c-0.6-0.8-1.3-1.5-2.3-2s-2.1-0.8-3.4-0.8
			c-1.5,0-2.9,0.4-4.1,1.1c-1.2,0.7-2.2,1.8-2.9,3.1c-0.7,1.3-1.1,2.9-1.1,4.7c0,1.8,0.4,3.2,1.1,4.6c0.7,1.3,1.7,2.3,2.9,3
			c1.2,0.7,2.6,1.1,4.1,1.1C388.7,268.1,390,267.8,391.1,267.3L391.1,267.3z"/>
		<path class="st1" d="M405,269.4c-1.6-1-2.9-2.4-3.7-4.1s-1.3-3.6-1.3-5.7c0-2.1,0.4-4.1,1.3-5.8s2.1-3.1,3.8-4.1
			c1.7-1,3.7-1.5,6-1.5c2.2,0,4.1,0.5,5.7,1.5s2.8,2.4,3.6,4.1s1.3,3.6,1.3,5.8c0,2.2-0.4,4-1.3,5.7s-2.1,3.1-3.8,4.1
			c-1.7,1.1-3.6,1.5-6,1.5C408.4,270.9,406.5,270.4,405,269.4L405,269.4z M416.5,266.1c1.4-1.6,2.1-3.8,2.1-6.6s-0.7-4.9-2.1-6.5
			c-1.4-1.6-3.3-2.4-5.6-2.4c-2.3,0-4.2,0.8-5.6,2.4c-1.4,1.6-2.1,3.8-2.1,6.5c0,1.8,0.4,3.4,1,4.8s1.5,2.4,2.7,3.2
			c1.2,0.7,2.5,1.1,4,1.1C413.3,268.5,415.1,267.8,416.5,266.1L416.5,266.1z"/>
		<path class="st1" d="M425.9,266.6c0.6,0.6,0.8,1.5,0.8,2.7c0,1.8-0.4,3.4-1.2,4.6c-0.8,1.3-1.8,2.3-3,3l-1.3-1.3
			c2-1.3,3.1-2.9,3.3-4.8c-0.1,0-0.4,0.1-0.7,0.1c-0.8,0-1.4-0.3-1.9-0.8s-0.8-1.1-0.8-1.8c0-0.7,0.3-1.4,0.8-1.9s1.2-0.8,1.9-0.8
			C424.6,265.7,425.3,265.9,425.9,266.6z"/>
		<path class="st1" d="M438.6,240.5l3-0.9v30.8h-3V240.5z"/>
		<path class="st1" d="M446.6,240.5l3-0.9v30.8h-3V240.5z"/>
		<path class="st1" d="M455.4,269c-1.5-1.3-2.2-3-2.2-5.2c0-1.8,0.6-3.1,1.9-4.1c1.3-1,3-1.5,5.4-1.5h3.5c1.1,0,2.3,0,3.8,0.1v-2
			c0-2-0.5-3.5-1.4-4.4c-1-0.9-2.5-1.4-4.4-1.4c-2.1,0-4.3,0.4-6.6,1l-0.4-2.4c1-0.3,2.2-0.6,3.5-0.8s2.6-0.3,3.9-0.3
			c2.7,0,4.8,0.6,6.2,2c1.5,1.3,2.2,3.2,2.2,5.7v9.1c0,1.3,0,3.2,0.1,5.5h-2.5c-0.1-0.6-0.2-1.5-0.4-2.7h-0.1
			c-0.6,1-1.5,1.8-2.6,2.3c-1.1,0.6-2.5,0.8-4.2,0.8C458.8,270.8,456.9,270.2,455.4,269L455.4,269z M466,266.9
			c1.1-1,1.7-2.3,1.7-4.1v-2.2H460c-1.2,0-2.1,0.2-2.7,0.7s-1,1.3-1,2.4c0,1.5,0.5,2.6,1.5,3.4c1,0.8,2.2,1.2,3.7,1.2
			C463.4,268.3,464.8,267.8,466,266.9L466,266.9z"/>
		<path class="st1" d="M475.3,248.5h2.7l0.3,2c1.1-0.7,2.2-1.3,3.5-1.7c1.3-0.4,2.5-0.6,3.8-0.6c1.3,0,2.4,0.2,3.4,0.7
			c1.1,0.5,1.9,1.1,2.5,2c1.1-0.8,2.4-1.4,3.9-1.9c1.5-0.5,2.9-0.7,4.2-0.7c2.4,0,4.1,0.7,5.4,2c1.3,1.3,1.9,3.2,1.9,5.8v14.5h-3
			v-13.3c0-2-0.3-3.4-0.9-4.6c-0.8-1.3-2.2-2-4.1-2c-1,0-2.2,0.2-3.4,0.7c-1.3,0.4-2.3,1-3.2,1.7c0.2,0.9,0.4,2,0.4,3.5v14h-3v-13.3
			c0-1.1,0-2-0.1-2.7c-0.1-0.7-0.3-1.3-0.6-1.8c-0.8-1.3-2.1-2-4-2c-1.2,0-2.4,0.2-3.5,0.7c-1.2,0.5-2.2,1.1-2.9,1.7v17.4h-3v-21.9
			L475.3,248.5z"/>
		<path class="st1" d="M512.4,269c-1.5-1.3-2.2-3-2.2-5.2c0-1.8,0.6-3.1,1.9-4.1c1.3-1,3-1.5,5.4-1.5h3.5c1.1,0,2.3,0,3.8,0.1v-2
			c0-2-0.5-3.5-1.4-4.4c-1-0.9-2.5-1.4-4.4-1.4c-2.1,0-4.3,0.4-6.6,1l-0.4-2.4c1-0.3,2.2-0.6,3.5-0.8s2.6-0.3,3.9-0.3
			c2.7,0,4.8,0.6,6.2,2c1.5,1.3,2.2,3.2,2.2,5.7v9.1c0,1.3,0,3.2,0.1,5.5h-2.5c-0.1-0.6-0.2-1.5-0.4-2.7h-0.1
			c-0.6,1-1.5,1.8-2.6,2.3c-1.1,0.6-2.5,0.8-4.2,0.8C515.8,270.8,513.9,270.2,512.4,269L512.4,269z M523,266.9
			c1.1-1,1.7-2.3,1.7-4.1v-2.2H517c-1.2,0-2.1,0.2-2.7,0.7s-1,1.3-1,2.4c0,1.5,0.5,2.6,1.5,3.4c1,0.8,2.2,1.2,3.7,1.2
			C520.3,268.3,521.8,267.8,523,266.9L523,266.9z"/>
		<path class="st1" d="M532.3,248.5h2.7l0.3,2c1.1-0.7,2.5-1.3,3.9-1.8s2.8-0.6,4.1-0.6c2.5,0,4.5,0.7,5.7,2
			c0.6,0.6,1.1,1.4,1.3,2.3s0.4,2,0.4,3.3v14.7h-3v-14.4c0-1.8-0.4-3-1.1-3.9c-0.4-0.6-0.9-0.9-1.5-1.2c-0.6-0.2-1.5-0.4-2.5-0.4
			c-1.3,0-2.5,0.2-3.8,0.6s-2.5,1.1-3.5,1.8v17.4h-3v-21.9L532.3,248.5z"/>
		<path class="st1" d="M558.8,269.5c-1.6-0.9-2.9-2.2-3.7-4c-0.8-1.8-1.3-3.6-1.3-5.8s0.5-4.3,1.5-6s2.3-3.1,4.1-4.1
			c1.7-1,3.5-1.4,5.5-1.4c1.5,0,2.9,0.3,4.1,0.8c1.2,0.6,2.1,1.2,2.7,2h0.1v-10.4l3-0.9V265c0,1.3,0,3.2,0.1,5.5h-2.5
			c-0.1-0.6-0.2-1.5-0.4-3h-0.1c-0.8,1-1.9,1.8-3.2,2.5s-2.7,1-4.3,1C562.2,270.9,560.4,270.4,558.8,269.5L558.8,269.5z
			 M568.8,267.3c1.3-0.8,2.2-1.8,2.9-2.9v-7.2c0-1.9-0.6-3.4-1.9-4.7c-1.3-1.3-2.9-1.9-5.1-1.9c-1.5,0-2.9,0.4-4.1,1.1
			c-1.2,0.8-2.1,1.8-2.8,3.2s-1,2.9-1,4.6s0.4,3.4,1,4.7c0.7,1.3,1.6,2.3,2.8,3c1.2,0.7,2.5,1.1,3.9,1.1c1.5,0,2.9-0.4,4.2-1.1
			L568.8,267.3z"/>
		<path class="st1" d="M582.4,269.4c-1.6-1-2.9-2.4-3.7-4.1c-0.8-1.7-1.3-3.6-1.3-5.7c0-2.1,0.4-4.1,1.3-5.8
			c0.8-1.8,2.1-3.1,3.8-4.1c1.7-1,3.7-1.5,6-1.5c2.2,0,4.1,0.5,5.7,1.5s2.8,2.4,3.6,4.1c0.8,1.7,1.3,3.6,1.3,5.8
			c0,2.2-0.4,4-1.3,5.7c-0.8,1.7-2.1,3.1-3.8,4.1c-1.7,1.1-3.6,1.5-6,1.5C585.8,270.9,583.9,270.4,582.4,269.4L582.4,269.4z
			 M593.9,266.1c1.4-1.6,2.1-3.8,2.1-6.6s-0.7-4.9-2.1-6.5c-1.4-1.6-3.3-2.4-5.6-2.4s-4.2,0.8-5.6,2.4c-1.4,1.6-2.1,3.8-2.1,6.5
			c0,1.8,0.4,3.4,1,4.8s1.5,2.4,2.7,3.2c1.2,0.7,2.5,1.1,4,1.1C590.7,268.5,592.5,267.8,593.9,266.1L593.9,266.1z"/>
		<path class="st1" d="M613.1,269.4c-1.6-1-2.9-2.4-3.7-4.1c-0.8-1.7-1.3-3.6-1.3-5.7c0-2.1,0.4-4.1,1.3-5.8
			c0.8-1.8,2.1-3.1,3.8-4.1c1.7-1,3.7-1.5,6-1.5c2.2,0,4.1,0.5,5.7,1.5c1.6,1,2.8,2.4,3.6,4.1c0.8,1.7,1.3,3.6,1.3,5.8
			c0,2.2-0.4,4-1.3,5.7c-0.8,1.7-2.1,3.1-3.8,4.1c-1.7,1.1-3.6,1.5-6,1.5C616.5,270.9,614.6,270.4,613.1,269.4L613.1,269.4z
			 M624.6,266.1c1.4-1.6,2.1-3.8,2.1-6.6s-0.7-4.9-2.1-6.5c-1.4-1.6-3.3-2.4-5.6-2.4s-4.2,0.8-5.6,2.4c-1.4,1.6-2.1,3.8-2.1,6.5
			c0,1.8,0.4,3.4,1,4.8s1.5,2.4,2.7,3.2c1.2,0.7,2.5,1.1,4,1.1C621.4,268.5,623.2,267.8,624.6,266.1L624.6,266.1z"/>
		<path class="st1" d="M641.8,268c-2-1.9-2.9-4.7-2.9-8.5c0-2.2,0.4-4.1,1.3-5.9c0.8-1.8,2-3.1,3.6-4.1c1.6-1,3.5-1.5,5.7-1.5
			c2.9,0,5.2,0.8,6.7,2.5c1.5,1.7,2.2,3.9,2.2,6.7c0,1.2,0,2.2-0.1,3.1h-16.2c0.1,2.5,0.8,4.5,2.2,5.9c1.3,1.4,3.4,2.1,6.2,2.1
			c1,0,2-0.1,3.2-0.4c1.1-0.2,2.2-0.6,3.2-1l0.5,2.3c-2.4,1.1-4.8,1.5-7.2,1.5C646.4,270.9,643.7,270,641.8,268L641.8,268z
			 M655.2,258c0,0,0-0.6,0-1.1c0-1.8-0.5-3.4-1.5-4.5c-1-1.1-2.5-1.8-4.6-1.8c-2.2,0-3.9,0.7-5.2,2c-1.3,1.3-2,3.2-2.1,5.3H655.2
			L655.2,258z"/>
		<path class="st1" d="M663.3,270.4c-1.3-0.3-2.3-0.7-3.3-1.2l0.3-2.6c1,0.6,2.1,0.9,3.3,1.3c1.2,0.4,2.4,0.4,3.5,0.4
			c1.6,0,2.9-0.4,3.7-1c0.9-0.6,1.3-1.5,1.3-2.7c0-0.8-0.1-1.5-0.5-1.9c-0.3-0.5-0.8-0.8-1.4-1.2s-1.6-0.7-3-1.2
			c-2.5-0.9-4.2-1.8-5.2-2.9c-1-1-1.5-2.2-1.5-3.8c0-1.8,0.7-3.1,2.1-4.1c1.4-1,3.3-1.5,5.6-1.5c1.9,0,3.8,0.4,5.6,1l-0.4,2.5
			c-1.8-0.6-3.6-1-5.2-1c-1.5,0-2.7,0.3-3.6,0.8c-0.8,0.6-1.3,1.3-1.3,2.3c0,0.9,0.4,1.7,1.1,2.3c0.7,0.6,2,1.3,4,2
			c2.2,0.8,3.9,1.6,4.9,2.5c1.1,0.9,1.5,2.2,1.5,3.9c0,2-0.7,3.6-2.2,4.8c-1.5,1.1-3.4,1.7-5.7,1.7
			C665.9,270.8,664.6,270.6,663.3,270.4L663.3,270.4z"/>
		<path class="st1" d="M682.1,269.5c-1.7-0.9-3-2.2-4-3.9c-0.9-1.8-1.4-3.8-1.4-6.2c0-2.4,0.5-4.3,1.5-6c1-1.7,2.4-3,4.1-3.9
			c1.8-0.9,3.6-1.3,5.7-1.3c2.5,0,4.6,0.4,6.4,1.2l-0.5,2.5c-0.8-0.4-1.7-0.6-2.7-0.8c-1.1-0.2-2.1-0.4-3.1-0.4
			c-1.7,0-3.2,0.4-4.4,1.1s-2.2,1.8-2.9,3.1c-0.7,1.3-1.1,2.8-1.1,4.5c0,2.7,0.7,4.8,2.1,6.5c1.4,1.8,3.6,2.5,6.5,2.5
			c1,0,2-0.1,3-0.4c1.1-0.2,2-0.6,2.9-1l0.5,2.3c-2.2,1-4.5,1.5-6.8,1.5S683.9,270.5,682.1,269.5L682.1,269.5z"/>
		<path class="st1" d="M697.4,248.5h2.8l0.3,3.2c0.9-0.9,2-1.8,3.4-2.4c1.4-0.6,2.9-1.1,4.4-1.1l-0.1,2.9c-1.3,0-2.7,0.4-4.1,0.9
			c-1.4,0.6-2.6,1.3-3.6,2.1v16.4h-3L697.4,248.5L697.4,248.5z"/>
		<path class="st1" d="M710.1,244.1c-0.5-0.4-0.7-1-0.7-1.7c0-0.7,0.2-1.3,0.7-1.7c0.5-0.4,1.1-0.7,1.7-0.7s1.3,0.2,1.8,0.7
			c0.5,0.4,0.7,1,0.7,1.7c0,0.7-0.2,1.3-0.7,1.7c-0.5,0.4-1.1,0.7-1.8,0.7C711.1,244.8,710.5,244.6,710.1,244.1z M710.3,248.5h3
			v21.9h-3V248.5z"/>
		<path class="st1" d="M722.4,270.3c-1.6-0.4-3.1-0.9-4.3-1.5v-28.2l3-0.9v11.7h0.2c0.8-0.9,1.8-1.7,3.2-2.3
			c1.3-0.6,2.8-0.9,4.5-0.9c1.9,0,3.6,0.4,5.1,1.3c1.5,0.8,2.7,2.1,3.5,3.7c0.8,1.6,1.3,3.6,1.3,5.9s-0.5,4.5-1.4,6.2
			c-0.9,1.8-2.2,3.2-3.9,4.1c-1.7,1-3.6,1.5-6,1.5C725.7,270.8,724,270.6,722.4,270.3L722.4,270.3z M733.5,266
			c1.5-1.6,2.2-3.9,2.2-6.7c0-2.9-0.6-4.9-2-6.4c-1.3-1.5-3-2.2-5.3-2.2c-1.3,0-2.5,0.3-3.6,0.8c-1.1,0.6-2,1.4-2.7,2.4
			c-0.7,1-1,2.2-1,3.4v9.9c1.9,0.8,4.1,1.2,6.4,1.2C730.1,268.4,732,267.6,733.5,266z"/>
		<path class="st1" d="M742,244.1c-0.5-0.4-0.7-1-0.7-1.7c0-0.7,0.2-1.3,0.7-1.7c0.5-0.4,1.1-0.7,1.7-0.7s1.3,0.2,1.8,0.7
			c0.5,0.4,0.7,1,0.7,1.7c0,0.7-0.2,1.3-0.7,1.7c-0.5,0.4-1.1,0.7-1.8,0.7S742.5,244.6,742,244.1z M742.2,248.5h3v21.9h-3V248.5z"/>
		<path class="st1" d="M751.6,268c-2-1.9-2.9-4.7-2.9-8.5c0-2.2,0.4-4.1,1.3-5.9c0.8-1.8,2-3.1,3.6-4.1c1.6-1,3.5-1.5,5.7-1.5
			c2.9,0,5.2,0.8,6.7,2.5c1.5,1.7,2.2,3.9,2.2,6.7c0,1.2,0,2.2-0.1,3.1h-16.2c0.1,2.5,0.8,4.5,2.2,5.9c1.3,1.4,3.4,2.1,6.2,2.1
			c1,0,2-0.1,3.2-0.4c1.1-0.2,2.2-0.6,3.2-1l0.5,2.3c-2.4,1.1-4.8,1.5-7.2,1.5C756.2,270.9,753.5,270,751.6,268L751.6,268z M765,258
			c0,0,0-0.6,0-1.1c0-1.8-0.5-3.4-1.5-4.5c-1-1.1-2.5-1.8-4.6-1.8c-2.2,0-3.9,0.7-5.2,2c-1.3,1.3-2,3.2-2.1,5.3H765L765,258z"/>
		<path class="st1" d="M771,248.5h2.7l0.3,2c1.1-0.7,2.5-1.3,3.9-1.8c1.4-0.4,2.8-0.6,4.1-0.6c2.5,0,4.5,0.7,5.7,2
			c0.6,0.6,1.1,1.4,1.3,2.3s0.4,2,0.4,3.3v14.7h-3v-14.4c0-1.8-0.4-3-1.1-3.9c-0.4-0.6-0.9-0.9-1.5-1.2c-0.6-0.2-1.5-0.4-2.5-0.4
			c-1.3,0-2.5,0.2-3.8,0.6c-1.3,0.4-2.5,1.1-3.5,1.8v17.4h-3v-21.9L771,248.5z"/>
		<path class="st1" d="M797.5,269.5c-1.6-0.9-2.9-2.2-3.7-4c-0.8-1.8-1.3-3.6-1.3-5.8s0.5-4.3,1.5-6s2.3-3.1,4.1-4.1
			c1.7-1,3.5-1.4,5.5-1.4c1.5,0,2.9,0.3,4.1,0.8c1.2,0.6,2.1,1.2,2.7,2h0.1v-10.4l3-0.9V265c0,1.3,0,3.2,0.1,5.5H811
			c-0.1-0.6-0.2-1.5-0.4-3h-0.1c-0.8,1-1.9,1.8-3.2,2.5s-2.7,1-4.3,1C800.9,270.9,799.1,270.4,797.5,269.5L797.5,269.5z
			 M807.6,267.3c1.3-0.8,2.2-1.8,2.9-2.9v-7.2c0-1.9-0.6-3.4-1.9-4.7c-1.3-1.3-2.9-1.9-5.1-1.9c-1.5,0-2.9,0.4-4.1,1.1
			s-2.1,1.8-2.8,3.2s-1,2.9-1,4.6s0.4,3.4,1,4.7c0.7,1.3,1.6,2.3,2.8,3c1.2,0.7,2.5,1.1,3.9,1.1c1.5,0,2.9-0.4,4.2-1.1L807.6,267.3z
			"/>
		<path class="st1" d="M821.1,269.4c-1.6-1-2.9-2.4-3.7-4.1c-0.8-1.7-1.3-3.6-1.3-5.7c0-2.1,0.4-4.1,1.3-5.8
			c0.8-1.8,2.1-3.1,3.8-4.1c1.7-1,3.7-1.5,6-1.5c2.2,0,4.1,0.5,5.7,1.5c1.6,1,2.8,2.4,3.6,4.1c0.8,1.7,1.3,3.6,1.3,5.8
			c0,2.2-0.4,4-1.3,5.7c-0.8,1.7-2.1,3.1-3.8,4.1c-1.7,1.1-3.6,1.5-6,1.5C824.5,270.9,822.6,270.4,821.1,269.4L821.1,269.4z
			 M832.6,266.1c1.4-1.6,2.1-3.8,2.1-6.6s-0.7-4.9-2.1-6.5c-1.4-1.6-3.3-2.4-5.6-2.4s-4.2,0.8-5.6,2.4c-1.4,1.6-2.1,3.8-2.1,6.5
			c0,1.8,0.4,3.4,1,4.8c0.6,1.3,1.5,2.4,2.7,3.2c1.2,0.7,2.5,1.1,4,1.1C829.4,268.5,831.2,267.8,832.6,266.1L832.6,266.1z"/>
		<path class="st1" d="M849.3,269c-1.5-1.3-2.2-3-2.2-5.2c0-1.8,0.6-3.1,1.9-4.1c1.3-1,3-1.5,5.4-1.5h3.5c1,0,2.3,0,3.8,0.1v-2
			c0-2-0.5-3.5-1.4-4.4c-1-0.9-2.5-1.4-4.4-1.4c-2.1,0-4.3,0.4-6.6,1l-0.4-2.4c1-0.3,2.2-0.6,3.5-0.8s2.6-0.3,3.9-0.3
			c2.7,0,4.8,0.6,6.2,2c1.5,1.3,2.2,3.2,2.2,5.7v9.1c0,1.3,0,3.2,0.1,5.5h-2.5c-0.1-0.6-0.2-1.5-0.4-2.7h-0.1
			c-0.6,1-1.5,1.8-2.6,2.3c-1.1,0.6-2.5,0.8-4.2,0.8C852.8,270.8,850.9,270.2,849.3,269L849.3,269z M860,266.9
			c1.1-1,1.7-2.3,1.7-4.1v-2.2H854c-1.2,0-2.1,0.2-2.7,0.7s-1,1.3-1,2.4c0,1.5,0.5,2.6,1.5,3.4c1,0.8,2.2,1.2,3.7,1.2
			C857.3,268.3,858.8,267.8,860,266.9L860,266.9z"/>
		<path class="st1" d="M867.6,252l3.9-4.2l-5.2-2l1.1-2.4l4.6,2.1l-0.2-5h2.8l-0.3,5l4.7-2.2l1.1,2.4l-5.1,2l3.8,4.3l-2.2,1.5
			l-3.4-4.3l-3.4,4.3L867.6,252L867.6,252z"/>
		<path class="st1" d="M882.1,255.5c-0.6-0.6-0.8-1.1-0.8-1.8c0-0.7,0.3-1.3,0.8-1.9c0.5-0.6,1.1-0.8,1.9-0.8c0.8,0,1.3,0.3,1.9,0.8
			c0.6,0.5,0.8,1.2,0.8,1.9c0,0.7-0.3,1.3-0.8,1.9c-0.5,0.6-1.2,0.8-1.9,0.8S882.7,256.1,882.1,255.5L882.1,255.5z M882.1,270.1
			c-0.6-0.6-0.8-1.1-0.8-1.8c0-0.7,0.3-1.3,0.8-1.9s1.1-0.8,1.9-0.8c0.8,0,1.3,0.3,1.9,0.8c0.6,0.5,0.8,1.2,0.8,1.9
			s-0.3,1.3-0.8,1.9c-0.5,0.6-1.2,0.8-1.9,0.8S882.7,270.7,882.1,270.1L882.1,270.1z"/>
	</g>
	<g id="titulo">
		<g>
			<path class="st2" d="M622.6,70c-2.5-0.1-4.5,1.7-4.6,4.1c-0.9,16.7-8.7,31.6-20.4,41.9c-2.4,1.2-4.9,1.9-7.6,1.9
				c-5.6,0-11.3-2.9-14.6-8.7c-3.4-6-2.2-13.4,2.3-18.7c6.9-8.1,8.4-19.8,2.7-29.8c-3.9-6.8-10.9-11.6-18.6-12.8
				c-16.4-2.5-30.5,10-30.5,25.8c0,6.2,2.2,12.1,6.2,16.9c5.3,6.2,5.5,15.7,0,21.8c-5.4,6-13.8,7-20.3,3.6
				c-5.5-4.9-10.1-10.8-13.5-17.4c-0.4-0.8-0.8-1.6-1.1-2.4l0.1,0.6c-3.3-6.9-5.3-14.5-5.7-22.5c-0.1-2.4-2.2-4.3-4.6-4.1
				c-2.4,0.1-4.3,2.2-4.1,4.6c2,36.6,32.4,65.2,69.1,65.2s67.1-28.7,69.1-65.3c0.1-2.4-1.7-4.5-4.1-4.6L622.6,70z"/>
			<g>
				<path class="st2" d="M122.6,102.1c-5.9-3.2-10.2-7.7-13.2-13.2c-2.9-5.6-4.3-11.9-4.3-18.9c0-7.4,1.6-13.9,4.8-19.7
					c3.2-5.7,7.8-10.2,13.7-13.3c5.9-3.2,12.7-4.7,20.5-4.7c7.8,0,14.5,1,19.9,3l-1.3,13.3c-2.2-0.8-4.8-1.5-8.1-2.2
					c-3.3-0.6-6.5-0.8-9.7-0.8c-4.6,0-8.7,0.9-12.3,2.8s-6.5,4.6-8.6,8.2c-2.1,3.6-3.1,7.9-3.1,12.8c0,7.4,2.2,13.4,6.4,17.7
					c4.3,4.3,10.2,6.6,17.8,6.6c3.1,0,6.2-0.3,9.5-0.8s6-1.1,8.5-2l1.2,12.9c-2.5,0.9-5.4,1.7-9,2.2c-3.6,0.6-7.1,0.8-10.9,0.8
					C135.7,107,128.5,105.4,122.6,102.1L122.6,102.1z"/>
				<path class="st2" d="M177.5,99.3c-5.2-5.2-7.8-12.3-7.8-21.3c0-6,1.2-11.1,3.6-15.5c2.4-4.4,5.8-7.8,10.2-10.1
					c4.4-2.3,9.6-3.5,15.5-3.5s11.2,1.2,15.6,3.5c4.4,2.3,7.8,5.7,10.2,10c2.4,4.3,3.6,9.5,3.6,15.5s-1.2,11.1-3.6,15.5
					c-2.4,4.4-5.8,7.8-10.2,10.1c-4.4,2.3-9.6,3.5-15.5,3.5C189.8,107.1,182.6,104.5,177.5,99.3L177.5,99.3z M209.3,90.5
					c2.6-2.9,3.9-7,3.9-12.4c0-5.4-1.3-9.5-3.9-12.5c-2.6-2.9-6-4.4-10.2-4.4s-7.6,1.5-10.2,4.4c-2.6,2.9-3.9,7.1-3.9,12.5
					c0,5.4,1.3,9.5,3.9,12.4c2.6,2.9,6,4.3,10.2,4.3S206.6,93.4,209.3,90.5L209.3,90.5z"/>
				<path class="st2" d="M237.7,31.3l15.1-4V106h-15.1V31.3z"/>
				<path class="st2" d="M280.8,130.8c-3.3-0.5-6.2-1.2-9-2l1.4-12.3c2.2,0.8,4.6,1.5,7.4,2c2.7,0.6,5.3,0.8,7.7,0.8
					c10.3,0,15.5-4.8,15.5-14.5v-3.6c-1.9,1.7-4.1,2.9-6.8,3.9c-2.7,1-5.5,1.5-8.5,1.5c-5.5,0-10.4-1.2-14.5-3.6
					c-4.1-2.5-7.4-5.8-9.6-10.2c-2.2-4.3-3.4-9.3-3.4-14.9c0-5.6,1.2-10.4,3.6-14.8c2.5-4.4,5.9-7.8,10.3-10.4
					c4.4-2.5,9.6-3.8,15.5-3.8c3.2,0,6.2,0.6,9.1,1.8c2.8,1.2,5.1,2.9,6.9,5.1l1-5.9h10.9v51.5c0,10.1-2.5,17.6-7.3,22.6
					s-11.7,7.5-20.5,7.5c-3.2,0-6.4-0.3-9.6-0.8L280.8,130.8z M298.1,93c2.1-0.8,3.8-1.8,5-3V72.7c0-3.3-1.1-6-3.4-8.1
					s-5.1-3.2-8.5-3.2c-4.6,0-8.3,1.5-10.9,4.5c-2.7,2.9-4.1,6.9-4.1,11.8c0,5.2,1.4,9.2,4.2,12.1c2.8,2.9,6.4,4.4,10.9,4.4
					C293.9,94.2,296.1,93.7,298.1,93L298.1,93z"/>
				<path class="st2" d="M336.2,104.6c-3.2-1.6-5.6-3.9-7.4-6.8c-1.8-2.9-2.7-6.2-2.7-9.8c0-5.5,1.8-9.5,5.5-12.3s9.7-4.1,18.1-4.1
					h3.6c2.6,0,5.3,0.1,8.2,0.4v-2.5c0-2.9-1-5-3-6.2c-2-1.3-5.2-2-9.5-2c-5.3,0-10.8,0.8-16.7,2.2l-1-11.9c2.9-0.8,6.3-1.5,10.2-2
					c3.9-0.5,7.8-0.8,11.3-0.8c7.6,0,13.4,1.6,17.4,4.9c4.1,3.3,6.1,8.3,6.1,15.1v25.8c0,5.1,0.1,8.8,0.2,11.1h-13
					c-0.4-2.2-0.7-3.9-0.8-5.4h-0.2c-4.1,4.3-9.4,6.4-15.9,6.4C342.9,107,339.4,106.2,336.2,104.6z M358.6,93.2c2-1.5,3-3.5,3-6V82
					h-13c-2.2,0-3.9,0.5-5.1,1.5c-1.3,1-1.9,2.5-1.9,4.3c0,2.4,0.8,4.2,2.5,5.6c1.7,1.3,3.9,2,6.7,2
					C353.9,95.4,356.5,94.6,358.6,93.2L358.6,93.2z"/>
				<path class="st2" d="M391.9,102.1c-3.4-2.9-5.1-8-5.1-15.2V37.6l15.1-2.2v15.3h19.4l-2.7,12.7h-16.7v20.8c0,3.3,0.6,5.7,2,7.2
					c1.3,1.5,3.4,2.2,6.1,2.2c4,0,7.3-0.3,9.7-0.8l0.8,11.8c-1.7,0.6-3.7,1.1-6.2,1.3c-2.5,0.4-4.9,0.5-7.4,0.5
					C400.3,106.4,395.3,104.9,391.9,102.1z"/>
				<path class="st2" d="M432.5,99.5c-5.2-5-7.7-12.1-7.7-21.4c0-5.6,1.1-10.6,3.4-15s5.5-7.8,9.8-10.4c4.3-2.5,9.4-3.8,15.3-3.8
					c8.5,0,14.7,2.5,18.8,7.6c4.1,5,6.1,11.4,6.1,19c0,2.8-0.2,5.3-0.6,7.6h-36.9c0.1,3.5,1.7,6.3,4.6,8.3c2.9,2,6.9,3.1,12,3.1
					c6.2,0,11.5-0.9,16-2.8l1.3,12.1c-5,2.1-11.2,3.1-18.8,3.1C445.4,107,437.6,104.5,432.5,99.5L432.5,99.5z M463.1,72.8
					c0-0.8,0-1.5-0.1-2c-0.4-3.3-1.4-5.9-3.1-7.8c-1.7-1.9-4.1-2.9-7.2-2.9c-3.7,0-6.6,1.1-8.6,3.4s-3.1,5.3-3.2,9.3
					C440.9,72.8,463.1,72.8,463.1,72.8z"/>
			</g>
			<path class="st2" d="M620.7,63.4c-2.7,0-5.1-1.9-5.7-4.6c-5.6-27.2-30-47-57.8-47s-52.2,19.7-57.8,47c-0.6,3.2-3.7,5.2-6.9,4.5
				c-3.2-0.6-5.2-3.7-4.5-6.9c6.7-32.6,35.8-56.3,69.2-56.3s62.4,23.7,69.2,56.3c0.6,3.2-1.4,6.2-4.5,6.9
				C621.5,63.4,621.1,63.4,620.7,63.4z"/>
			<path class="st2" d="M589.4,101.5c-0.7,0-1.3-0.2-1.9-0.7c-1.2-1.1-1.3-2.9-0.3-4.1c6.2-7.2,9.7-16.4,9.7-25.9
				c0-21.9-17.8-39.7-39.7-39.7s-39.7,17.8-39.7,39.7c0,9.5,3.4,18.7,9.7,25.9c1.1,1.2,0.9,3-0.3,4.1c-1.2,1.1-3.1,0.9-4.1-0.3
				c-7.1-8.3-11.1-18.8-11.1-29.7c0-25.1,20.4-45.5,45.5-45.5c25.1,0,45.5,20.4,45.5,45.5c0,10.9-3.9,21.4-11.1,29.7
				c-0.6,0.6-1.4,1-2.2,1H589.4z"/>
			<g>
				<path class="st2" d="M641.6,33.5h27c9.1,0,16.1,2,21,6c4.9,4,7.4,10.2,7.4,18.3s-2.3,14.4-6.9,18.8c-4.6,4.5-11.3,6.7-20.3,6.7
					h-13V106h-15.3V33.5z M668.7,70.1c4.2,0,7.4-1.1,9.5-3.1c2.1-2.1,3.2-5,3.2-8.8c0-7.6-4.3-11.5-13-11.5h-11.5v23.4H668.7
					L668.7,70.1z"/>
				<path class="st2" d="M710.5,104.7c-3.2-1.6-5.6-3.9-7.4-6.8c-1.8-2.9-2.7-6.2-2.7-9.8c0-5.5,1.8-9.5,5.5-12.3s9.7-4.1,18.1-4.1
					h3.6c2.6,0,5.3,0.1,8.2,0.4v-2.5c0-2.9-1-5-3-6.2s-5.2-2-9.5-2c-5.3,0-10.8,0.8-16.7,2.2l-1-11.9c2.9-0.8,6.3-1.5,10.2-2
					c3.9-0.5,7.8-0.8,11.3-0.8c7.6,0,13.4,1.6,17.4,4.9c4.1,3.3,6.1,8.3,6.1,15.1v25.8c0,5.1,0.1,8.8,0.2,11.1h-13
					c-0.4-2.2-0.7-3.9-0.8-5.4h-0.2c-4.1,4.3-9.4,6.4-15.9,6.4C717.3,107.1,713.7,106.3,710.5,104.7z M732.9,93.3c2-1.5,3-3.5,3-6
					v-5.2h-13c-2.2,0-3.9,0.5-5.1,1.5c-1.3,1-1.9,2.5-1.9,4.3c0,2.4,0.8,4.2,2.5,5.6c1.7,1.3,3.9,2,6.7,2
					C728.2,95.5,730.8,94.7,732.9,93.3L732.9,93.3z"/>
				<path class="st2" d="M758.6,104l1.2-12.7c2.8,1,5.7,1.8,8.8,2.5c3.1,0.6,6,1,8.6,1c3.3,0,5.7-0.4,7.2-1.3
					c1.5-0.9,2.3-2.1,2.3-3.6c0-0.9-0.3-1.8-0.8-2.4c-0.6-0.6-1.6-1.3-3.1-2S779,84,776,83.2c-5.9-1.7-10.2-4-12.9-6.8
					c-2.7-2.8-4.1-6.4-4.1-10.7c0-5.6,2.2-9.7,6.8-12.5c4.6-2.7,10.1-4.1,16.6-4.1c5.4,0,10.8,0.7,16.3,2.2l-1.1,12.3
					c-4.5-1.5-9.2-2.4-14.1-2.4c-6.1,0-9.1,1.3-9.1,4.1c0,1.3,0.8,2.3,2.5,3.2c1.7,0.8,4.7,2,9.2,3.4c6,1.9,10.1,4.1,12.4,6.6
					c2.3,2.5,3.5,5.8,3.5,9.7c0,6.4-2.2,11.1-6.5,14.3c-4.3,3.2-9.8,4.7-16.3,4.7c-7.6,0-14.4-1.1-20.5-3.1L758.6,104z"/>
				<path class="st2" d="M807.6,104l1.2-12.7c2.8,1,5.7,1.8,8.8,2.5c3.1,0.6,6,1,8.6,1c3.3,0,5.7-0.4,7.2-1.3
					c1.5-0.9,2.3-2.1,2.3-3.6c0-0.9-0.3-1.8-0.8-2.4c-0.6-0.6-1.6-1.3-3.1-2c-1.5-0.7-3.8-1.4-6.8-2.2c-5.9-1.7-10.2-4-12.9-6.8
					c-2.7-2.8-4.1-6.4-4.1-10.7c0-5.6,2.2-9.7,6.8-12.5c4.6-2.7,10.1-4.1,16.6-4.1c5.4,0,10.8,0.7,16.3,2.2l-1.1,12.3
					c-4.5-1.5-9.2-2.4-14.1-2.4c-6.1,0-9.1,1.3-9.1,4.1c0,1.3,0.8,2.3,2.5,3.2c1.7,0.8,4.7,2,9.2,3.4c6,1.9,10.1,4.1,12.4,6.6
					s3.5,5.8,3.5,9.7c0,6.4-2.2,11.1-6.5,14.3c-4.3,3.2-9.8,4.7-16.3,4.7c-7.6,0-14.4-1.1-20.5-3.1L807.6,104z"/>
			</g>
			<g>
				<g>
					<path class="st3" d="M622.2,69.9c-2.5-0.1-4.5,1.7-4.6,4.1c-0.9,16.7-8.7,31.6-20.4,41.9c-2.4,1.2-4.9,1.9-7.6,1.9
						c-5.6,0-11.3-2.9-14.6-8.7c-3.4-6-2.2-13.4,2.3-18.7c6.9-8.1,8.4-19.8,2.7-29.8c-3.9-6.8-10.9-11.6-18.6-12.8
						c-16.4-2.5-30.5,10-30.5,25.8c0,6.2,2.2,12.1,6.2,16.9c5.3,6.2,5.5,15.7,0,21.8c-5.4,6-13.8,7-20.3,3.6
						c-5.5-4.9-10.1-10.8-13.5-17.4c-0.4-0.8-0.8-1.6-1.1-2.4l0.1,0.6c-3.3-6.9-5.3-14.5-5.7-22.5c-0.1-2.4-2.2-4.3-4.6-4.1
						c-2.4,0.1-4.3,2.2-4.1,4.6c2,36.6,32.4,65.2,69.1,65.2c36.7,0,67.1-28.7,69.1-65.3c0.1-2.4-1.7-4.5-4.1-4.6L622.2,69.9z"/>
					<path class="st2" d="M611.5,41.4h-3c1.1,2,2.2,4,3,6.1V41.4z"/>
					<path class="st2" d="M502.6,41.4v6.7c1-2.3,2.1-4.6,3.3-6.7H502.6z"/>
				</g>
				<path class="st1" d="M620.7,63.3c-2.7,0-5.1-1.9-5.7-4.6c-5.6-27.2-30-47-57.8-47s-52.2,19.7-57.8,47c-0.6,3.2-3.7,5.2-6.9,4.5
					c-3.2-0.6-5.2-3.7-4.5-6.9C494.8,23.7,523.9,0,557.2,0s62.4,23.7,69.2,56.3c0.6,3.2-1.4,6.2-4.5,6.9
					C621.5,63.2,621.1,63.3,620.7,63.3z"/>
				<path class="st1" d="M589.4,101.3c-0.7,0-1.3-0.2-1.9-0.7c-1.2-1.1-1.3-2.9-0.3-4.1c6.2-7.2,9.7-16.4,9.7-25.9
					c0-21.9-17.8-39.7-39.7-39.7s-39.7,17.8-39.7,39.7c0,9.5,3.4,18.7,9.7,25.9c1.1,1.2,0.9,3-0.3,4.1c-1.2,1.1-3.1,0.9-4.1-0.3
					c-7.1-8.3-11.1-18.8-11.1-29.7c0-25.1,20.4-45.5,45.5-45.5c25.1,0,45.5,20.4,45.5,45.5c0,10.9-3.9,21.4-11.1,29.7
					c-0.6,0.6-1.4,1-2.2,1H589.4z"/>
				<g>
					<path class="st3" d="M122.2,102.1c-5.9-3.2-10.2-7.7-13.2-13.2c-2.9-5.6-4.3-11.9-4.3-18.9c0-7.4,1.6-13.9,4.8-19.7
						c3.2-5.7,7.8-10.2,13.7-13.3c5.9-3.2,12.7-4.7,20.5-4.7s14.5,1,19.9,3l-1.3,13.3c-2.2-0.8-4.8-1.5-8.1-2.2
						c-3.3-0.6-6.5-0.8-9.7-0.8c-4.6,0-8.7,0.9-12.3,2.8c-3.6,1.9-6.5,4.6-8.6,8.2c-2.1,3.6-3.1,7.9-3.1,12.8
						c0,7.4,2.2,13.4,6.4,17.7c4.3,4.3,10.2,6.6,17.8,6.6c3.1,0,6.2-0.3,9.5-0.8s6-1.1,8.5-2l1.2,12.9c-2.5,0.9-5.4,1.7-9,2.2
						c-3.6,0.6-7.1,0.8-10.9,0.8C135.2,106.9,128,105.3,122.2,102.1L122.2,102.1z"/>
					<path class="st3" d="M177,99.2c-5.2-5.2-7.8-12.3-7.8-21.3c0-6,1.2-11.1,3.6-15.5c2.4-4.4,5.8-7.8,10.2-10.1
						c4.4-2.3,9.6-3.5,15.5-3.5c6,0,11.2,1.2,15.6,3.5c4.4,2.3,7.8,5.7,10.2,10c2.4,4.3,3.6,9.5,3.6,15.5s-1.2,11.1-3.6,15.5
						c-2.4,4.4-5.8,7.8-10.2,10.1c-4.4,2.3-9.6,3.5-15.5,3.5C189.4,107,182.2,104.4,177,99.2L177,99.2z M208.9,90.4
						c2.6-2.9,3.9-7,3.9-12.4c0-5.4-1.3-9.5-3.9-12.5c-2.6-2.9-6-4.4-10.2-4.4c-4.1,0-7.6,1.5-10.2,4.4c-2.6,2.9-3.9,7.1-3.9,12.5
						c0,5.4,1.3,9.5,3.9,12.4c2.6,2.9,6,4.3,10.2,4.3C202.9,94.7,206.2,93.2,208.9,90.4L208.9,90.4z"/>
					<path class="st3" d="M237.3,31.2l15.1-4v78.7h-15.1V31.2z"/>
					<path class="st3" d="M280.4,130.8c-3.3-0.5-6.2-1.2-9-2l1.4-12.3c2.2,0.8,4.6,1.5,7.4,2c2.7,0.6,5.3,0.8,7.7,0.8
						c10.3,0,15.5-4.8,15.5-14.5v-3.6c-1.9,1.7-4.1,2.9-6.8,3.9c-2.7,1-5.5,1.5-8.5,1.5c-5.5,0-10.4-1.2-14.5-3.6
						c-4.1-2.5-7.4-5.8-9.6-10.2c-2.2-4.3-3.4-9.3-3.4-14.9s1.2-10.4,3.6-14.8c2.5-4.4,5.9-7.8,10.3-10.4c4.4-2.5,9.6-3.8,15.5-3.8
						c3.2,0,6.2,0.6,9.1,1.8c2.8,1.2,5.1,2.9,6.9,5.1l1-5.9h10.9v51.5c0,10.1-2.5,17.6-7.3,22.6c-4.8,5-11.7,7.5-20.5,7.5
						c-3.2,0-6.4-0.3-9.6-0.8L280.4,130.8z M297.7,92.9c2.1-0.8,3.8-1.8,5-3V72.6c0-3.3-1.1-6-3.4-8.1s-5.1-3.2-8.5-3.2
						c-4.6,0-8.3,1.5-10.9,4.5c-2.7,2.9-4.1,6.9-4.1,11.8c0,5.2,1.4,9.2,4.2,12.1s6.4,4.4,10.9,4.4
						C293.5,94.1,295.7,93.7,297.7,92.9L297.7,92.9z"/>
					<path class="st3" d="M335.8,104.4c-3.2-1.6-5.6-3.9-7.4-6.8c-1.8-2.9-2.7-6.2-2.7-9.8c0-5.5,1.8-9.5,5.5-12.3
						c3.6-2.7,9.7-4.1,18.1-4.1h3.6c2.6,0,5.3,0.1,8.2,0.4v-2.5c0-2.9-1-5-3-6.2c-2-1.3-5.2-2-9.5-2c-5.3,0-10.8,0.8-16.7,2.2
						l-1-11.9c2.9-0.8,6.3-1.5,10.2-2c3.9-0.5,7.8-0.8,11.3-0.8c7.6,0,13.4,1.6,17.4,4.9c4.1,3.3,6.1,8.3,6.1,15.1v25.8
						c0,5.1,0.1,8.8,0.2,11.1h-13c-0.4-2.2-0.7-3.9-0.8-5.4h-0.2c-4.1,4.3-9.4,6.4-15.9,6.4C342.5,106.9,339,106.1,335.8,104.4z
						 M358.1,93.1c2-1.5,3-3.5,3-6v-5.2h-13c-2.2,0-3.9,0.5-5.1,1.5s-1.9,2.5-1.9,4.3c0,2.4,0.8,4.2,2.5,5.6c1.7,1.3,3.9,2,6.7,2
						C353.5,95.3,356.1,94.5,358.1,93.1L358.1,93.1z"/>
					<path class="st3" d="M391.5,101.9c-3.4-2.9-5.1-8-5.1-15.2V37.5l15.1-2.2v15.3h19.4l-2.7,12.7h-16.7V84c0,3.3,0.6,5.7,2,7.2
						c1.3,1.5,3.4,2.2,6.1,2.2c4,0,7.3-0.3,9.7-0.8l0.8,11.8c-1.7,0.6-3.7,1.1-6.2,1.3c-2.5,0.4-4.9,0.5-7.4,0.5
						C399.9,106.3,394.9,104.8,391.5,101.9z"/>
					<path class="st3" d="M432.2,99.4c-5.2-5-7.7-12.1-7.7-21.4c0-5.6,1.1-10.6,3.4-15c2.2-4.4,5.5-7.8,9.8-10.4
						c4.3-2.5,9.4-3.8,15.3-3.8c8.5,0,14.7,2.5,18.8,7.6c4.1,5,6.1,11.4,6.1,19c0,2.8-0.2,5.3-0.6,7.6h-36.9
						c0.1,3.5,1.7,6.3,4.6,8.3s6.9,3.1,12,3.1c6.2,0,11.5-0.9,16-2.8l1.3,12.1c-5,2.1-11.2,3.1-18.8,3.1
						C445,106.9,437.2,104.4,432.2,99.4L432.2,99.4z M462.8,72.7c0-0.8,0-1.5-0.1-2c-0.4-3.3-1.4-5.9-3.1-7.8
						c-1.7-1.9-4.1-2.9-7.2-2.9c-3.7,0-6.6,1.1-8.6,3.4c-2,2.2-3.1,5.3-3.2,9.3C440.6,72.7,462.8,72.7,462.8,72.7z"/>
				</g>
				<g>
					<path class="st1" d="M641.6,33.3h27c9.1,0,16.1,2,21,6c4.9,4,7.4,10.2,7.4,18.3s-2.3,14.4-6.9,18.8c-4.6,4.5-11.3,6.7-20.3,6.7
						h-13v22.6h-15.3V33.3z M668.7,69.9c4.2,0,7.4-1.1,9.5-3.1c2.1-2.1,3.2-5,3.2-8.8c0-7.6-4.3-11.5-13-11.5h-11.5v23.4H668.7
						L668.7,69.9z"/>
					<path class="st1" d="M710.5,104.4c-3.2-1.6-5.6-3.9-7.4-6.8c-1.8-2.9-2.7-6.2-2.7-9.8c0-5.5,1.8-9.5,5.5-12.3
						c3.6-2.7,9.7-4.1,18.1-4.1h3.6c2.6,0,5.3,0.1,8.2,0.4v-2.5c0-2.9-1-5-3-6.2s-5.2-2-9.5-2c-5.3,0-10.8,0.8-16.7,2.2l-1-11.9
						c2.9-0.8,6.3-1.5,10.2-2s7.8-0.8,11.3-0.8c7.6,0,13.4,1.6,17.4,4.9c4.1,3.3,6.1,8.3,6.1,15.1v25.8c0,5.1,0.1,8.8,0.2,11.1h-13
						c-0.4-2.2-0.7-3.9-0.8-5.4h-0.2c-4.1,4.3-9.4,6.4-15.9,6.4C717.3,106.9,713.7,106.1,710.5,104.4z M732.9,93.1c2-1.5,3-3.5,3-6
						v-5.2h-13c-2.2,0-3.9,0.5-5.1,1.5c-1.3,1-1.9,2.5-1.9,4.3c0,2.4,0.8,4.2,2.5,5.6c1.7,1.3,3.9,2,6.7,2
						C728.2,95.3,730.8,94.5,732.9,93.1L732.9,93.1z"/>
					<path class="st1" d="M758.6,103.8l1.2-12.7c2.8,1,5.7,1.8,8.8,2.5s6,1,8.6,1c3.3,0,5.7-0.4,7.2-1.3c1.5-0.9,2.3-2.1,2.3-3.6
						c0-0.9-0.3-1.8-0.8-2.4c-0.6-0.6-1.6-1.3-3.1-2c-1.5-0.7-3.8-1.4-6.8-2.2c-5.9-1.7-10.2-4-12.9-6.8c-2.7-2.8-4.1-6.4-4.1-10.7
						c0-5.6,2.2-9.7,6.8-12.5c4.6-2.7,10.1-4.1,16.6-4.1c5.4,0,10.8,0.7,16.3,2.2l-1.1,12.3c-4.5-1.5-9.2-2.4-14.1-2.4
						c-6.1,0-9.1,1.3-9.1,4.1c0,1.3,0.8,2.3,2.5,3.2c1.7,0.8,4.7,2,9.2,3.4c6,1.9,10.1,4.1,12.4,6.6c2.3,2.5,3.5,5.8,3.5,9.7
						c0,6.4-2.2,11.1-6.5,14.3c-4.3,3.2-9.8,4.7-16.3,4.7c-7.6,0-14.4-1.1-20.5-3.1L758.6,103.8z"/>
					<path class="st1" d="M807.6,103.8l1.2-12.7c2.8,1,5.7,1.8,8.8,2.5c3.1,0.6,6,1,8.6,1c3.3,0,5.7-0.4,7.2-1.3
						c1.5-0.9,2.3-2.1,2.3-3.6c0-0.9-0.3-1.8-0.8-2.4c-0.6-0.6-1.6-1.3-3.1-2c-1.5-0.7-3.8-1.4-6.8-2.2c-5.9-1.7-10.2-4-12.9-6.8
						s-4.1-6.4-4.1-10.7c0-5.6,2.2-9.7,6.8-12.5c4.6-2.7,10.1-4.1,16.6-4.1c5.4,0,10.8,0.7,16.3,2.2l-1.1,12.3
						c-4.5-1.5-9.2-2.4-14.1-2.4c-6.1,0-9.1,1.3-9.1,4.1c0,1.3,0.8,2.3,2.5,3.2c1.7,0.8,4.7,2,9.2,3.4c6,1.9,10.1,4.1,12.4,6.6
						s3.5,5.8,3.5,9.7c0,6.4-2.2,11.1-6.5,14.3c-4.3,3.2-9.8,4.7-16.3,4.7c-7.6,0-14.4-1.1-20.5-3.1L807.6,103.8z"/>
				</g>
			</g>
		</g>
	</g>
</g>
</svg>
